<svg width="16" height="16" viewBox="0 0 16 16" fill="none" xmlns="http://www.w3.org/2000/svg">
<g clip-path="url(#clip0_438_1281)">
<mask id="path-1-inside-1_438_1281" fill="white">
<path d="M15.3333 1.34887L13.9845 0L7.66667 6.31844L1.34887 0L0 1.34887L6.31844 7.66667L0 13.9845L1.34887 15.3333L7.66667 9.0149L13.9845 15.3333L15.3333 13.9845L9.0149 7.66667L15.3333 1.34887Z"/>
</mask>
<path d="M15.3333 1.34887L13.9845 0L7.66667 6.31844L1.34887 0L0 1.34887L6.31844 7.66667L0 13.9845L1.34887 15.3333L7.66667 9.0149L13.9845 15.3333L15.3333 13.9845L9.0149 7.66667L15.3333 1.34887Z" fill="white"/>
<path d="M15.3333 1.34887L30.4175 16.4346L45.504 1.34962L30.4183 -13.7361L15.3333 1.34887ZM13.9845 0L29.0694 -15.085L13.9837 -30.1706L-1.10124 -15.0842L13.9845 0ZM7.66667 6.31844L-7.41904 21.4026L7.66667 36.4898L22.7524 21.4026L7.66667 6.31844ZM1.34887 0L16.4346 -15.0842L1.34962 -30.1706L-13.7361 -15.0849L1.34887 0ZM0 1.34887L-15.0849 -13.7361L-30.1706 1.34962L-15.0842 16.4346L0 1.34887ZM6.31844 7.66667L21.4026 22.7524L36.4898 7.66667L21.4026 -7.41904L6.31844 7.66667ZM0 13.9845L-15.0842 -1.10124L-30.1706 13.9837L-15.085 29.0694L0 13.9845ZM1.34887 15.3333L-13.7361 30.4183L1.34962 45.504L16.4346 30.4175L1.34887 15.3333ZM7.66667 9.0149L22.7524 -6.06929L7.66667 -21.1565L-7.41904 -6.06929L7.66667 9.0149ZM13.9845 15.3333L-1.10124 30.4175L13.9837 45.504L29.0694 30.4183L13.9845 15.3333ZM15.3333 13.9845L30.4183 29.0694L45.504 13.9837L30.4175 -1.10124L15.3333 13.9845ZM9.0149 7.66667L-6.06929 -7.41904L-21.1565 7.66667L-6.06929 22.7524L9.0149 7.66667ZM30.4183 -13.7361L29.0694 -15.085L-1.10047 15.085L0.248392 16.4338L30.4183 -13.7361ZM-1.10124 -15.0842L-7.41904 -8.76575L22.7524 21.4026L29.0702 15.0842L-1.10124 -15.0842ZM22.7524 -8.76575L16.4346 -15.0842L-13.7368 15.0842L-7.41904 21.4026L22.7524 -8.76575ZM-13.7361 -15.0849L-15.0849 -13.7361L15.0849 16.4338L16.4338 15.0849L-13.7361 -15.0849ZM-15.0842 16.4346L-8.76575 22.7524L21.4026 -7.41904L15.0842 -13.7368L-15.0842 16.4346ZM-8.76575 -7.41904L-15.0842 -1.10124L15.0842 29.0702L21.4026 22.7524L-8.76575 -7.41904ZM-15.085 29.0694L-13.7361 30.4183L16.4338 0.248392L15.085 -1.10047L-15.085 29.0694ZM16.4346 30.4175L22.7524 24.0991L-7.41904 -6.06929L-13.7368 0.249148L16.4346 30.4175ZM-7.41904 24.0991L-1.10124 30.4175L29.0702 0.249147L22.7524 -6.06929L-7.41904 24.0991ZM29.0694 30.4183L30.4183 29.0694L0.248387 -1.10048L-1.10048 0.248387L29.0694 30.4183ZM30.4175 -1.10124L24.0991 -7.41904L-6.06929 22.7524L0.249147 29.0702L30.4175 -1.10124ZM24.0991 22.7524L30.4175 16.4346L0.249148 -13.7368L-6.06929 -7.41904L24.0991 22.7524Z" fill="#E31E24" mask="url(#path-1-inside-1_438_1281)"/>
</g>
<defs>
<clipPath id="clip0_438_1281">
<rect width="16" height="16" fill="white"/>
</clipPath>
</defs>
</svg>
