<svg width="40" height="40" viewBox="0 0 40 40" fill="none" xmlns="http://www.w3.org/2000/svg">
<rect width="24" height="24" transform="translate(8 8)" fill="white"/>
<path fill-rule="evenodd" clip-rule="evenodd" d="M17.7927 8.0683C17.4298 8.15607 16.884 8.44907 16.5811 8.71885C16.2365 9.02556 15.9036 9.53626 15.7541 9.98741C15.6383 10.3369 15.6316 10.4035 15.6289 11.2362V12.2358C15.6289 12.2358 15.8359 12.2358 15.9367 12.2358C16.2398 12.2358 16.2232 12.2358 16.5429 12.2358C16.8623 12.2358 17.5841 12.2358 17.5841 12.2358C17.5841 12.2358 17.5841 12.1349 17.5841 11.3489C17.6099 10.4991 17.6346 10.4112 17.9171 10.1635C18.0043 10.087 18.1521 10.0032 18.2456 9.97729C18.3541 9.94723 19.2133 9.93092 20.6202 9.93222C22.694 9.93415 22.8141 9.9386 22.6448 10.0068C21.994 10.2689 21.5369 10.821 21.4079 11.5008C21.3786 11.6549 21.3625 14.3006 21.3625 18.9687V26.1978L19.889 26.1976C18.9997 26.1974 18.3482 26.1787 18.2456 26.1502C18.1521 26.1243 18.0043 26.0405 17.9171 25.964C17.6117 25.6961 17.6081 25.6787 17.5832 24.3104C17.5622 23.1567 17.5532 22.933 17.5532 22.933C17.5532 22.933 16.9396 22.933 16.5429 22.933C16.1462 22.933 15.6275 22.933 15.6275 22.933C15.6275 22.933 15.6261 23.1268 15.6275 24.4227V25.5569L15.7527 26.1401C15.9938 26.8593 16.5116 27.4665 17.1802 27.814C17.7547 28.1125 17.887 28.1289 19.7316 28.1296L21.3625 28.1303V28.6634C21.3625 29.5511 21.4907 29.9607 21.9056 30.3988C22.3397 30.8573 22.7669 31.0278 23.4031 30.9964C23.797 30.9769 23.9443 30.9325 26.845 29.9591C28.5117 29.3998 29.9614 28.8918 30.0664 28.8304C30.3549 28.6615 30.7419 28.2185 30.8632 27.9184L30.9682 27.6584L30.9907 22.6027C31.0031 19.822 31.0031 15.7168 30.9907 13.4799L30.9682 9.41285L30.8433 9.14636C30.5942 8.61517 30.186 8.25318 29.6475 8.08601C29.3689 7.99954 29.2168 7.99734 23.7086 8.00098C18.9985 8.00413 18.0118 8.01536 17.7927 8.0683ZM12.7241 12.8118V13.4495C12.7241 13.4495 12.7241 14.2342 12.7241 15.1626V16.6257H10.6912C8.70808 16.6257 8.40414 16.6257 8.40414 16.6257L8 16.6257C8 16.6257 8 17.2104 8 17.5559C8 17.9664 8 18.5581 8 18.5581C8 18.5581 8.53689 18.5581 10.7184 18.5581H12.7198L12.7332 20.1197L12.7466 21.6814V22.3697L13.6451 22.3697C13.6451 22.3697 13.9754 22.3683 14.1279 22.2945C14.2618 22.2297 14.954 21.5672 16.3756 20.1435C18.5762 17.9396 18.5286 17.997 18.5268 17.5469C18.5264 17.4481 18.4882 17.2863 18.442 17.1874C18.3855 17.0664 17.6759 16.33 16.2722 14.9352C14.3255 13.0011 14.1723 12.8594 13.9752 12.8118C13.6219 12.8118 12.7241 12.8118 12.7241 12.8118Z" fill="#1A202C"/>
</svg>
