<svg width="23" height="23" viewBox="0 0 23 23" fill="none" xmlns="http://www.w3.org/2000/svg">
<path d="M5.8595 16.0499C5.8592 16.0497 5.8589 16.0494 5.8586 16.0491L6.49558 16.2917C6.26111 16.2916 6.03481 16.2056 5.8595 16.0499ZM7.85722 13.8041L7.86067 13.8002L7.85722 13.8041Z" fill="white" stroke="white" stroke-width="21.3333"/>
<path d="M7 23C8.10457 23 9 22.1046 9 21C9 19.8954 8.10457 19 7 19C5.89543 19 5 19.8954 5 21C5 22.1046 5.89543 23 7 23Z" fill="white"/>
<path d="M17 23C18.1046 23 19 22.1046 19 21C19 19.8954 18.1046 19 17 19C15.8954 19 15 19.8954 15 21C15 22.1046 15.8954 23 17 23Z" fill="white"/>
</svg>
