<svg width="24" height="24" viewBox="0 0 24 24" fill="none" xmlns="http://www.w3.org/2000/svg">
<g clip-path="url(#clip0_898_1413)">
<path d="M7.66667 3.94651C3.36087 4.42388 -6.96084e-07 8.07545 -5.02681e-07 12.5C-3.09278e-07 16.9245 3.36087 20.5761 7.66667 21.0535L7.66667 24L20.5323 22.1651C21.9391 21.9642 23 20.7435 23 19.3238L23 5.67615C23 4.25742 21.9391 3.03577 20.5323 2.83487L7.66667 1L7.66667 3.94651ZM1.91667 12.5C1.91667 9.13352 4.42175 6.34677 7.66667 5.87992L7.66667 19.1201C4.42175 18.6532 1.91667 15.8665 1.91667 12.5ZM19.1667 16.3266L19.1667 18.24L11.5 18.24L11.5 16.3266L19.1667 16.3266ZM19.1667 11.5433L19.1667 13.4567L11.5 13.4567L11.5 11.5433L19.1667 11.5433ZM19.1667 6.76004L19.1667 8.67336L11.5 8.67336L11.5 6.76004L19.1667 6.76004Z" fill="white"/>
</g>
<defs>
<clipPath id="clip0_898_1413">
<rect width="24" height="24" fill="white" transform="translate(0 24) rotate(-90)"/>
</clipPath>
</defs>
</svg>
