<svg width="24" height="24" viewBox="0 0 24 24" fill="none" xmlns="http://www.w3.org/2000/svg">
<g clip-path="url(#clip0_1048_1590)">
<path d="M22.1833 22.1636L23.0933 21.1146C23.6725 20.5335 23.9977 19.7465 23.9977 18.9261C23.9977 18.1056 23.6725 17.3186 23.0933 16.7376C23.0623 16.7066 20.6563 14.8556 20.6563 14.8556C20.0788 14.3059 19.3118 13.9998 18.5146 14.0009C17.7174 14.0021 16.9512 14.3103 16.3753 14.8616L14.4693 16.4676C12.9135 15.8237 11.5002 14.8787 10.3106 13.6871C9.12098 12.4954 8.17851 11.0805 7.5373 9.52356L9.1373 7.62356C9.68901 7.04774 9.99759 6.28144 9.9989 5.48397C10.0002 4.68649 9.69413 3.91919 9.1443 3.34156C9.1443 3.34156 7.2913 0.938563 7.2603 0.907562C6.68975 0.333311 5.91618 0.00658442 5.10672 -0.00202282C4.29727 -0.01063 3.51693 0.299573 2.9343 0.861562L1.7843 1.86156C-5.0097 9.74356 9.62029 24.2606 17.7623 23.9996C18.5845 24.0043 19.3993 23.8443 20.1586 23.529C20.9179 23.2136 21.6064 22.7494 22.1833 22.1636Z" fill="#1A202C"/>
</g>
<defs>
<clipPath id="clip0_1048_1590">
<rect width="24" height="24" fill="white"/>
</clipPath>
</defs>
</svg>
