<svg width="16" height="15" viewBox="0 0 16 15" fill="none" xmlns="http://www.w3.org/2000/svg">
<mask id="path-1-inside-1_953_2383" fill="white">
<path d="M15.3337 1.45691L14.0434 0.166687L8.00032 6.21041L1.95721 0.166687L0.666992 1.45691L6.71071 7.50002L0.666992 13.5431L1.95721 14.8334L8.00032 8.78963L14.0434 14.8334L15.3337 13.5431L9.28994 7.50002L15.3337 1.45691Z"/>
</mask>
<path d="M15.3337 1.45691L14.0434 0.166687L8.00032 6.21041L1.95721 0.166687L0.666992 1.45691L6.71071 7.50002L0.666992 13.5431L1.95721 14.8334L8.00032 8.78963L14.0434 14.8334L15.3337 13.5431L9.28994 7.50002L15.3337 1.45691Z" fill="white"/>
<path d="M15.3337 1.45691L30.4178 16.5426L45.5043 1.45766L30.4186 -13.628L15.3337 1.45691ZM14.0434 0.166687L29.1284 -14.9183L14.0427 -30.004L-1.04227 -14.9175L14.0434 0.166687ZM8.00032 6.21041L-7.08538 21.2946L8.00032 36.3818L23.086 21.2946L8.00032 6.21041ZM1.95721 0.166687L17.0429 -14.9175L1.95797 -30.004L-13.1277 -14.9183L1.95721 0.166687ZM0.666992 1.45691L-14.418 -13.628L-29.5037 1.45766L-14.4172 16.5426L0.666992 1.45691ZM6.71071 7.50002L21.7949 22.5857L36.8821 7.50002L21.7949 -7.58568L6.71071 7.50002ZM0.666992 13.5431L-14.4172 -1.54257L-29.5037 13.5424L-14.418 28.6281L0.666992 13.5431ZM1.95721 14.8334L-13.1277 29.9183L1.95797 45.004L17.0429 29.9175L1.95721 14.8334ZM8.00032 8.78963L23.086 -6.29456L8.00032 -21.3818L-7.08538 -6.29455L8.00032 8.78963ZM14.0434 14.8334L-1.04227 29.9175L14.0427 45.004L29.1284 29.9183L14.0434 14.8334ZM15.3337 13.5431L30.4186 28.6281L45.5043 13.5424L30.4178 -1.54257L15.3337 13.5431ZM9.28994 7.50002L-5.79425 -7.58569L-20.8815 7.50002L-5.79425 22.5857L9.28994 7.50002ZM30.4186 -13.628L29.1284 -14.9183L-1.0415 15.2516L0.248718 16.5419L30.4186 -13.628ZM-1.04227 -14.9175L-7.08538 -8.87378L23.086 21.2946L29.1291 15.2509L-1.04227 -14.9175ZM23.086 -8.87378L17.0429 -14.9175L-13.1285 15.2509L-7.08538 21.2946L23.086 -8.87378ZM-13.1277 -14.9183L-14.418 -13.628L15.7519 16.5419L17.0422 15.2516L-13.1277 -14.9183ZM-14.4172 16.5426L-8.37347 22.5857L21.7949 -7.58568L15.7512 -13.6288L-14.4172 16.5426ZM-8.37347 -7.58568L-14.4172 -1.54257L15.7512 28.6288L21.7949 22.5857L-8.37347 -7.58568ZM-14.418 28.6281L-13.1277 29.9183L17.0422 -0.251588L15.7519 -1.54181L-14.418 28.6281ZM17.0429 29.9175L23.086 23.8738L-7.08538 -6.29455L-13.1285 -0.250832L17.0429 29.9175ZM-7.08538 23.8738L-1.04227 29.9175L29.1291 -0.250833L23.086 -6.29456L-7.08538 23.8738ZM29.1284 29.9183L30.4186 28.6281L0.248712 -1.54181L-1.04151 -0.251593L29.1284 29.9183ZM30.4178 -1.54257L24.3741 -7.58569L-5.79425 22.5857L0.249472 28.6288L30.4178 -1.54257ZM24.3741 22.5857L30.4178 16.5426L0.249473 -13.6288L-5.79425 -7.58569L24.3741 22.5857Z" fill="white" mask="url(#path-1-inside-1_953_2383)"/>
</svg>
