<svg width="16" height="16" viewBox="0 0 16 16" fill="none" xmlns="http://www.w3.org/2000/svg">
<g clip-path="url(#clip0_937_1082)">
<mask id="path-1-inside-1_937_1082" fill="white">
<path d="M15.3337 1.95672L14.0434 0.666504L8.00032 6.71023L1.95721 0.666504L0.666992 1.95672L6.71071 7.99984L0.666992 14.0429L1.95721 15.3332L8.00032 9.28945L14.0434 15.3332L15.3337 14.0429L9.28994 7.99984L15.3337 1.95672Z"/>
</mask>
<path d="M15.3337 1.95672L14.0434 0.666504L8.00032 6.71023L1.95721 0.666504L0.666992 1.95672L6.71071 7.99984L0.666992 14.0429L1.95721 15.3332L8.00032 9.28945L14.0434 15.3332L15.3337 14.0429L9.28994 7.99984L15.3337 1.95672Z" fill="white"/>
<path d="M15.3337 1.95672L30.4178 17.0424L45.5043 1.95748L30.4186 -13.1282L15.3337 1.95672ZM14.0434 0.666504L29.1284 -14.4184L14.0427 -29.5041L-1.04227 -14.4177L14.0434 0.666504ZM8.00032 6.71023L-7.08538 21.7944L8.00032 36.8816L23.086 21.7944L8.00032 6.71023ZM1.95721 0.666504L17.0429 -14.4177L1.95797 -29.5041L-13.1277 -14.4184L1.95721 0.666504ZM0.666992 1.95672L-14.418 -13.1282L-29.5037 1.95748L-14.4172 17.0424L0.666992 1.95672ZM6.71071 7.99984L21.7949 23.0855L36.8821 7.99984L21.7949 -7.08587L6.71071 7.99984ZM0.666992 14.0429L-14.4172 -1.04275L-29.5037 14.0422L-14.418 29.1279L0.666992 14.0429ZM1.95721 15.3332L-13.1277 30.4181L1.95797 45.5038L17.0429 30.4174L1.95721 15.3332ZM8.00032 9.28945L23.086 -5.79474L8.00032 -20.882L-7.08538 -5.79474L8.00032 9.28945ZM14.0434 15.3332L-1.04227 30.4174L14.0427 45.5038L29.1284 30.4181L14.0434 15.3332ZM15.3337 14.0429L30.4186 29.1279L45.5043 14.0422L30.4178 -1.04276L15.3337 14.0429ZM9.28994 7.99984L-5.79425 -7.08587L-20.8815 7.99984L-5.79425 23.0855L9.28994 7.99984ZM30.4186 -13.1282L29.1284 -14.4184L-1.0415 15.7515L0.248718 17.0417L30.4186 -13.1282ZM-1.04227 -14.4177L-7.08538 -8.37396L23.086 21.7944L29.1291 15.7507L-1.04227 -14.4177ZM23.086 -8.37396L17.0429 -14.4177L-13.1285 15.7507L-7.08538 21.7944L23.086 -8.37396ZM-13.1277 -14.4184L-14.418 -13.1282L15.7519 17.0417L17.0422 15.7514L-13.1277 -14.4184ZM-14.4172 17.0424L-8.37347 23.0855L21.7949 -7.08587L15.7512 -13.129L-14.4172 17.0424ZM-8.37347 -7.08587L-14.4172 -1.04275L15.7512 29.1287L21.7949 23.0855L-8.37347 -7.08587ZM-14.418 29.1279L-13.1277 30.4181L17.0422 0.248229L15.7519 -1.04199L-14.418 29.1279ZM17.0429 30.4174L23.086 24.3736L-7.08538 -5.79474L-13.1285 0.248984L17.0429 30.4174ZM-7.08538 24.3736L-1.04227 30.4174L29.1291 0.248984L23.086 -5.79474L-7.08538 24.3736ZM29.1284 30.4181L30.4186 29.1279L0.248712 -1.042L-1.04151 0.248224L29.1284 30.4181ZM30.4178 -1.04276L24.3741 -7.08587L-5.79425 23.0855L0.249472 29.1287L30.4178 -1.04276ZM24.3741 23.0855L30.4178 17.0424L0.249473 -13.129L-5.79425 -7.08587L24.3741 23.0855Z" fill="#383838" mask="url(#path-1-inside-1_937_1082)"/>
</g>
<defs>
<clipPath id="clip0_937_1082">
<rect width="16" height="16" fill="white"/>
</clipPath>
</defs>
</svg>
