<svg width="24" height="24" viewBox="0 0 24 24" fill="none" xmlns="http://www.w3.org/2000/svg">
<mask id="path-1-inside-1_1048_3357" fill="white">
<path d="M14.413 21.7894L23.5459 12.2594L21.5129 10.1394L12.3799 19.6684C12.2919 19.76 12.1726 19.8114 12.0483 19.8114C11.924 19.8114 11.8047 19.76 11.7166 19.6684L2.58374 10.1394L0.545898 12.2594L9.6788 21.7884C10.3065 22.4433 11.1579 22.8114 12.0457 22.8116C12.9335 22.8117 13.785 22.4441 14.413 21.7894Z"/>
</mask>
<path d="M14.413 21.7894L23.5459 12.2594L21.5129 10.1394L12.3799 19.6684C12.2919 19.76 12.1726 19.8114 12.0483 19.8114C11.924 19.8114 11.8047 19.76 11.7166 19.6684L2.58374 10.1394L0.545898 12.2594L9.6788 21.7884C10.3065 22.4433 11.1579 22.8114 12.0457 22.8116C12.9335 22.8117 13.785 22.4441 14.413 21.7894Z" fill="white"/>
<path d="M14.413 21.7894L29.8084 36.5574L29.8154 36.55L14.413 21.7894ZM23.5459 12.2594L38.9483 27.02L53.0987 12.2544L38.9433 -2.50647L23.5459 12.2594ZM21.5129 10.1394L36.9103 -4.62647L21.5084 -20.687L6.1112 -4.62204L21.5129 10.1394ZM12.3799 19.6684L27.7603 34.452L27.771 34.441L27.7816 34.4298L12.3799 19.6684ZM12.0483 19.8114L12.0483 -1.52189L12.0483 19.8114ZM11.7166 19.6684L-3.68501 34.4298L-3.67437 34.441L-3.6637 34.452L11.7166 19.6684ZM2.58374 10.1394L17.9854 -4.62204L2.60629 -20.6681L-12.7963 -4.64458L2.58374 10.1394ZM0.545898 12.2594L-14.8341 -2.52458L-29.0243 12.2378L-14.8558 27.0208L0.545898 12.2594ZM9.6788 21.7884L-5.72285 36.5498L-5.72253 36.5502L9.6788 21.7884ZM29.8154 36.55L38.9483 27.02L8.14347 -2.50123L-0.989431 7.02877L29.8154 36.55ZM38.9433 -2.50647L36.9103 -4.62647L6.11545 24.9053L8.1485 27.0253L38.9433 -2.50647ZM6.1112 -4.62204L-3.02171 4.90696L27.7816 34.4298L36.9145 24.9008L6.1112 -4.62204ZM-3.0004 4.88476C0.834952 0.894606 6.22714 -1.5219 12.0483 -1.52189L12.0483 41.1448C18.1181 41.1448 23.7489 38.6254 27.7603 34.452L-3.0004 4.88476ZM12.0483 -1.52189C17.8695 -1.52189 23.2616 0.894607 27.097 4.88476L-3.6637 34.452C0.347735 38.6254 5.97845 41.1448 12.0483 41.1448L12.0483 -1.52189ZM27.1183 4.90696L17.9854 -4.62204L-12.8179 24.9008L-3.68501 34.4298L27.1183 4.90696ZM-12.7963 -4.64458L-14.8341 -2.52458L15.9259 27.0434L17.9638 24.9234L-12.7963 -4.64458ZM-14.8558 27.0208L-5.72285 36.5498L25.0805 7.02696L15.9476 -2.50204L-14.8558 27.0208ZM-5.72253 36.5502C-1.17147 41.2984 5.19829 44.1434 12.0412 44.1449L12.0502 1.47822C17.1175 1.47929 21.7845 3.58826 25.0801 7.02663L-5.72253 36.5502ZM12.0412 44.1449C18.8841 44.1463 25.2552 41.304 29.8084 36.5574L-0.982365 7.0214C2.31479 3.58418 6.98285 1.47715 12.0502 1.47822L12.0412 44.1449Z" fill="#E31E24" mask="url(#path-1-inside-1_1048_3357)"/>
<mask id="path-3-inside-2_1048_3357" fill="white">
<path d="M13.0653 13.2595L23.5459 2.31949L21.5129 0.198486L12.0483 10.0725L2.58374 0.198485L0.545898 2.31949L11.0313 13.2595C11.1648 13.3989 11.3234 13.5095 11.4979 13.5849C11.6724 13.6603 11.8594 13.6992 12.0483 13.6992C12.2372 13.6992 12.4242 13.6603 12.5987 13.5849C12.7732 13.5095 12.9318 13.3989 13.0653 13.2595Z"/>
</mask>
<path d="M13.0653 13.2595L23.5459 2.31949L21.5129 0.198486L12.0483 10.0725L2.58374 0.198485L0.545898 2.31949L11.0313 13.2595C11.1648 13.3989 11.3234 13.5095 11.4979 13.5849C11.6724 13.6603 11.8594 13.6992 12.0483 13.6992C12.2372 13.6992 12.4242 13.6603 12.5987 13.5849C12.7732 13.5095 12.9318 13.3989 13.0653 13.2595Z" fill="#1A202C"/>
<path d="M13.0653 13.2595L-2.33963 -1.49854L-2.34031 -1.49783L13.0653 13.2595ZM23.5459 2.31949L38.9508 17.0775L53.093 2.31544L38.9468 -12.4428L23.5459 2.31949ZM21.5129 0.198486L36.9137 -14.5638L21.5129 -30.6309L6.11197 -14.5638L21.5129 0.198486ZM12.0483 10.0725L-3.35258 24.8347L12.0483 40.9019L27.4492 24.8347L12.0483 10.0725ZM2.58374 0.198485L17.9846 -14.5638L2.60186 -30.612L-12.7998 -14.5819L2.58374 0.198485ZM0.545898 2.31949L-14.8376 -12.4609L-29.0211 2.30142L-14.8557 17.081L0.545898 2.31949ZM11.0313 13.2595L26.4369 -1.49783L26.4328 -1.50206L11.0313 13.2595ZM28.4702 28.0175L38.9508 17.0775L8.14097 -12.4385L-2.33963 -1.49854L28.4702 28.0175ZM38.9468 -12.4428L36.9137 -14.5638L6.11197 14.9607L8.14502 17.0817L38.9468 -12.4428ZM6.11197 -14.5638L-3.35258 -4.68976L27.4492 24.8347L36.9137 14.9607L6.11197 -14.5638ZM27.4492 -4.68976L17.9846 -14.5638L-12.8171 14.9607L-3.35258 24.8347L27.4492 -4.68976ZM-12.7998 -14.5819L-14.8376 -12.4609L15.9294 17.0998L17.9672 14.9788L-12.7998 -14.5819ZM-14.8557 17.081L-4.37026 28.021L26.4328 -1.50206L15.9475 -12.4421L-14.8557 17.081ZM-4.37431 28.0168C-2.30336 30.1787 0.20497 31.9443 3.03213 33.1666L19.9636 -5.9968C22.4417 -4.92542 24.633 -3.38099 26.4369 -1.49783L-4.37431 28.0168ZM3.03213 33.1666C5.86169 34.3899 8.92826 35.0325 12.0483 35.0325L12.0483 -7.63417C14.7905 -7.63417 17.483 -7.06921 19.9636 -5.9968L3.03213 33.1666ZM12.0483 35.0325C15.1683 35.0325 18.2349 34.3899 21.0645 33.1666L4.133 -5.9968C6.61355 -7.06921 9.30604 -7.63417 12.0483 -7.63417L12.0483 35.0325ZM21.0645 33.1666C23.8916 31.9443 26.3999 30.1787 28.4709 28.0168L-2.34031 -1.49783C-0.536396 -3.38099 1.65484 -4.92542 4.133 -5.9968L21.0645 33.1666Z" fill="#E31E24" mask="url(#path-3-inside-2_1048_3357)"/>
</svg>
