<svg width="24" height="24" viewBox="0 0 24 24" fill="none" xmlns="http://www.w3.org/2000/svg">
<g clip-path="url(#clip0_953_499)">
<mask id="path-1-inside-1_953_499" fill="white">
<path d="M22.3297 9.13791L12.7997 0.00500488L10.6797 2.03805L20.2087 11.171C20.3003 11.259 20.3517 11.3783 20.3517 11.5026C20.3517 11.6269 20.3003 11.7462 20.2087 11.8343L10.6797 20.9672L12.7997 23.005L22.3287 13.8721C22.9836 13.2444 23.3517 12.393 23.3518 11.5052C23.352 10.6174 22.9844 9.7659 22.3297 9.13791Z"/>
</mask>
<path d="M22.3297 9.13791L12.7997 0.00500488L10.6797 2.03805L20.2087 11.171C20.3003 11.259 20.3517 11.3783 20.3517 11.5026C20.3517 11.6269 20.3003 11.7462 20.2087 11.8343L10.6797 20.9672L12.7997 23.005L22.3287 13.8721C22.9836 13.2444 23.3517 12.393 23.3518 11.5052C23.352 10.6174 22.9844 9.7659 22.3297 9.13791Z" fill="white"/>
<path d="M22.3297 9.13791L37.0977 -6.25746L37.0903 -6.26452L22.3297 9.13791ZM12.7997 0.00500488L27.5603 -15.3974L12.7947 -29.5478L-1.96619 -15.3924L12.7997 0.00500488ZM10.6797 2.03805L-4.08619 -13.3593L-20.1468 2.04249L-4.08176 17.4397L10.6797 2.03805ZM20.2087 11.171L34.9923 -4.20939L34.9812 -4.22005L34.9701 -4.2307L20.2087 11.171ZM20.3517 11.5026H-0.981611H20.3517ZM20.2087 11.8343L34.9701 27.2359L34.9812 27.2253L34.9923 27.2146L20.2087 11.8343ZM10.6797 20.9672L-4.08176 5.56551L-20.1278 20.9446L-4.10429 36.3472L10.6797 20.9672ZM12.7997 23.005L-1.98429 38.385L12.778 52.5753L27.5611 38.4067L12.7997 23.005ZM22.3287 13.8721L37.0901 29.2738L37.0905 29.2734L22.3287 13.8721ZM37.0903 -6.26452L27.5603 -15.3974L-1.96095 15.4074L7.56905 24.5403L37.0903 -6.26452ZM-1.96619 -15.3924L-4.08619 -13.3593L25.4456 17.4355L27.5656 15.4024L-1.96619 -15.3924ZM-4.08176 17.4397L5.44724 26.5726L34.9701 -4.2307L25.4411 -13.3636L-4.08176 17.4397ZM5.42504 26.5513C1.43489 22.716 -0.981611 17.3238 -0.981611 11.5026H41.6851C41.6851 5.43277 39.1657 -0.197951 34.9923 -4.20939L5.42504 26.5513ZM-0.981611 11.5026C-0.981611 5.68145 1.43489 0.289264 5.42504 -3.54609L34.9923 27.2146C39.1657 23.2032 41.6851 17.5724 41.6851 11.5026H-0.981611ZM5.44724 -3.56739L-4.08176 5.56551L25.4411 36.3688L34.9701 27.2359L5.44724 -3.56739ZM-4.10429 36.3472L-1.98429 38.385L27.5837 7.62498L25.4637 5.58714L-4.10429 36.3472ZM27.5611 38.4067L37.0901 29.2738L7.56724 -1.52955L-1.96176 7.60335L27.5611 38.4067ZM37.0905 29.2734C41.8387 24.7224 44.6837 18.3526 44.6852 11.5097L2.01851 11.5007C2.01958 6.43337 4.12854 1.76635 7.56691 -1.52923L37.0905 29.2734ZM44.6852 11.5097C44.6866 4.66678 41.8443 -1.70431 37.0977 -6.25745L7.56168 24.5333C4.12446 21.2361 2.01744 16.5681 2.01851 11.5007L44.6852 11.5097Z" fill="#383838" mask="url(#path-1-inside-1_953_499)"/>
<path d="M13.8003 10.4856L2.86026 0.00500488L0.739258 2.03805L10.6133 11.5026L0.739258 20.9672L2.86026 23.005L13.8003 12.5196C13.9396 12.3861 14.0502 12.2275 14.1257 12.053C14.2011 11.8785 14.2399 11.6915 14.2399 11.5026C14.2399 11.3137 14.2011 11.1267 14.1257 10.9522C14.0502 10.7777 13.9396 10.6191 13.8003 10.4856Z" fill="#383838"/>
</g>
<defs>
<clipPath id="clip0_953_499">
<rect width="24" height="24" fill="white"/>
</clipPath>
</defs>
</svg>
