<svg width="28" height="41" viewBox="0 0 28 41" fill="none" xmlns="http://www.w3.org/2000/svg">
<path fill-rule="evenodd" clip-rule="evenodd" d="M3.14629 26.167C2.4481 28.195 5.17738 28.2584 5.74863 29.7794C6.12946 30.2864 5.93904 30.9836 6.57376 31.3638C7.58931 32.1243 9.1761 32.3778 9.62041 33.6453C9.93777 34.3424 10.636 34.4692 11.3976 34.5326C11.6515 34.4058 12.0323 34.2157 12.1593 33.8988C12.3497 33.3918 12.4766 32.8214 12.0958 32.3144C11.6515 32.1243 11.2707 31.8074 10.6994 31.8074L10.7629 31.8708C10.9533 32.1243 10.9533 32.5046 10.5725 32.6313C10.1282 32.3144 9.74734 31.8074 9.68387 31.2371C9.68387 29.5259 7.58931 29.5893 7.33542 28.0049C7.39889 27.7514 7.71625 27.6247 7.97014 27.688C9.04916 28.4485 10.4455 28.3852 11.4611 29.2724C11.9054 30.5399 13.6191 31.0469 13.7461 32.4412C14.8251 33.0749 14.8886 34.2791 15.3329 35.2297C15.9676 35.4198 16.6023 35.2931 17.1101 34.9128C17.364 34.9762 17.4909 35.2931 17.4274 35.5466C17.7448 35.9268 18.3795 35.8001 18.7603 35.6733C19.5855 35.9268 19.2046 36.8775 19.3951 37.5112C19.4585 37.7647 19.6489 38.2717 19.2681 38.3351H21.1088L20.9818 38.2083C20.9184 37.5746 21.68 37.4478 22.1243 37.1943C22.1878 36.3071 21.4261 35.8001 21.1723 35.0396C21.2357 33.3284 19.522 32.5679 19.5855 30.8568C20.1567 28.5753 17.4274 27.5613 18.1891 25.2798H18.0622C18.443 23.8855 17.4274 22.5546 17.1101 21.2237C17.6178 19.576 17.6178 17.3578 16.7927 15.8368C16.7292 15.3932 17.237 15.2031 17.6813 15.2665C19.522 15.5833 21.6166 15.9636 23.3303 15.8368C23.0764 15.7735 23.0129 15.5833 22.9495 15.3298C23.0764 15.0763 23.3938 14.7595 23.7111 14.8228C24.7267 14.8228 25.4883 14.1891 26.3769 14.1891L26.0596 13.8722C25.9961 13.0483 27.1386 13.3652 27.456 12.9849C24.6632 13.1751 21.68 12.0977 18.6334 12.0343C16.6023 11.6541 15.0155 14.1257 13.1748 12.5413C12.3497 12.4779 11.3976 13.0483 10.6994 12.3512L11.0803 8.29517C11.9689 7.28116 13.4287 8.35855 14.2538 7.15441C15.0155 7.09104 16.158 6.83754 16.6658 7.40792C17.1101 7.47129 17.4274 7.09104 17.6813 6.77416C17.364 6.64741 16.9831 6.71079 16.6658 6.71079C16.4119 6.58404 16.0945 6.45728 16.0945 6.07703C16.6658 5.18978 17.7448 6.07703 18.5065 5.50665C18.5699 4.93628 17.8083 4.74615 17.6813 4.23915V4.3659C17.6813 4.80953 17.237 4.80953 16.8562 4.74615C16.6023 4.55602 16.4754 4.30252 16.5388 3.92227C16.7292 3.66877 16.9197 3.54202 17.237 3.60539C15.8406 3.41527 14.4443 3.22514 13.0479 3.03501C13.1748 3.41527 12.8575 3.60539 12.6671 3.85889C12.4132 4.04902 12.1593 3.85889 11.9689 3.73214C11.588 3.47864 11.7784 3.09839 11.9689 2.84489H11.6515C11.3341 2.71814 10.9533 2.52801 11.0803 2.08438H9.81082C9.04916 1.95763 9.55693 0.943628 9.42999 0.5L8.54139 1.38726C8.47792 3.03501 6.63723 3.54202 5.49474 4.17577C5.43127 5.44328 4.16183 6.07703 3.46364 6.96429L3.90795 7.34454C4.16184 7.91492 3.59059 8.42192 3.14629 8.7388C2.82893 10.0697 2.82893 11.5273 2.19421 12.7314C2.25768 13.6821 1.43255 14.3792 1.49602 15.2665C0.226587 17.2311 0.670889 20.1464 0.543945 22.4279C1.05172 23.8855 2.51157 24.8995 3.14629 26.167ZM7.3989 29.0823C7.58931 29.4625 8.22403 29.4625 8.03361 29.9695C7.8432 30.2864 7.52583 30.2864 7.145 30.2864C6.63723 29.9062 6.70071 29.3358 6.31988 28.8922C5.74863 28.0683 5.24086 27.2444 4.41573 26.5473C4.4792 26.0403 4.86003 25.66 5.3678 25.5333C7.14501 26.0403 6.2564 28.0683 7.3989 29.0823ZM9.68387 23.2518C9.42999 23.125 9.55693 22.8715 9.42999 22.6814C9.62041 22.1744 10.1916 22.4913 10.3186 21.9843C10.6994 20.5266 7.84319 20.3365 9.68387 19.069C10.509 19.3225 11.6515 19.069 12.1593 20.0196C12.1593 20.4632 12.5401 20.8435 12.3497 21.2871C11.2707 21.604 11.0803 23.4419 9.68387 23.2518ZM17.6178 33.4552L17.364 33.6453C16.7292 33.0116 15.4598 32.7581 15.3963 31.6807C13.6191 30.6033 14.2538 28.2584 12.3497 27.5613C12.0958 27.181 11.7784 26.8008 12.0323 26.3572C12.4766 25.7234 13.0479 25.2164 13.873 25.2798C14.4443 25.5333 14.1269 26.1037 14.4443 26.4839C16.031 27.688 16.9831 29.3358 16.8562 31.2371C17.4274 31.8074 17.8083 32.6313 17.6178 33.4552ZM20.4741 34.8495C20.5375 35.2931 20.1567 35.6733 19.7759 35.8001C19.5855 35.8001 19.3951 35.7367 19.3316 35.5466C19.0142 34.9128 19.7124 33.6453 18.6969 33.5819C18.443 33.2651 18.7603 32.9482 19.0142 32.6947C19.9663 32.9482 19.9663 34.1523 20.4741 34.8495ZM19.2046 31.1103C18.9507 31.3638 18.5699 31.5539 18.1891 31.3638C17.7448 30.9836 17.6178 30.5399 17.6813 29.9695C18.2526 29.716 17.4909 29.209 18.0622 29.0189C18.7603 29.4625 19.3316 30.223 19.2046 31.1103ZM17.4274 25.7234C17.6178 26.5473 17.6813 27.3712 17.9987 28.1317L18.2526 28.195C17.9987 28.2584 17.9987 28.5119 17.9987 28.7654C17.4909 28.8922 17.364 28.0683 17.0466 27.7514C16.2215 27.3078 15.5233 26.6107 15.3963 25.7234C15.3329 25.2798 15.5233 24.8361 15.9676 24.7728C16.6658 24.646 16.9831 25.2798 17.4274 25.7234ZM10.8264 13.1751C11.9054 13.0483 12.7305 13.6187 13.6191 13.8722C13.8095 13.3652 14.3173 13.6187 14.6347 13.8088C16.4119 15.2665 16.9197 17.9282 16.158 19.8295C16.0945 20.2731 15.7772 20.8435 15.4598 21.0336C15.3329 21.097 14.8251 20.9069 14.6347 21.2237C14.8251 21.7941 15.6502 21.9843 15.7772 22.618C15.9041 22.9349 15.6502 23.2518 15.3963 23.3151C14.2538 23.8855 14.1269 21.6674 12.9844 22.4279C12.8575 22.4279 12.667 22.4279 12.6036 22.3011C12.6036 21.9843 12.9209 21.7307 13.1748 21.604H13.3018C13.3018 19.7027 11.8419 18.1817 10.7629 16.7875C10.8264 15.52 10.3821 14.2525 10.8264 13.1751ZM9.30305 6.71079C9.93777 6.71079 10.0647 7.47129 10.3186 7.91492C9.6204 10.3232 9.17611 12.9216 8.85875 15.3932C8.7318 15.4566 8.60486 15.3298 8.54139 15.2665C8.22403 12.2878 8.7318 9.43593 9.30305 6.71079ZM3.65406 20.0196C4.79655 20.2097 5.68516 21.097 6.44682 21.9843C6.31988 22.3645 6.76417 22.618 7.01806 22.6814C7.84319 22.5546 8.41444 23.125 8.98569 23.3785C9.11263 23.8855 8.54139 24.0123 8.22403 24.2024C7.20848 24.0756 6.12946 23.8855 5.11391 23.7588C4.47919 23.4419 3.65406 22.9983 3.3367 22.3645C3.40017 21.5406 2.57504 20.3365 3.65406 20.0196Z" fill="#9B9B9B"/>
<path fill-rule="evenodd" clip-rule="evenodd" d="M17.6814 4.30251V4.04901C17.6179 4.17576 17.6179 4.23914 17.6814 4.30251Z" fill="#9B9B9B"/>
<path fill-rule="evenodd" clip-rule="evenodd" d="M1.36914 40.5H27.4561V38.7609H1.36914V40.5Z" fill="#9B9B9B"/>
</svg>
