<svg width="60" height="37" viewBox="0 0 60 37" fill="none" xmlns="http://www.w3.org/2000/svg">
<path fill-rule="evenodd" clip-rule="evenodd" d="M54.5973 2.46025C54.8858 2.1289 55.3519 2.15099 55.7958 1.81965C55.3963 1.73129 52.4889 1.17904 52.4001 1.13486L52.2226 0.295437C50.2029 0.140808 48.8491 -0.0580007 47.1402 1.42203C46.319 2.1289 45.4312 2.92414 44.7876 3.6752L43.6335 4.91224C43.2119 5.33195 42.9677 5.68539 42.546 6.12719C41.8358 6.92242 39.683 9.72785 38.9728 10.7219C38.7953 10.9649 38.6621 11.0753 38.7065 11.4509C39.0838 13.9249 40.2379 18.2325 41.059 20.6845C41.2366 21.1925 41.5251 21.8552 41.6361 22.3633L40.5486 20.1764C40.2157 19.4253 39.905 18.608 39.6386 17.8349C39.0616 16.2665 38.5511 14.5435 38.1516 12.8204C37.3305 12.7763 34.6672 13.2401 33.7129 13.3948C29.6514 13.9912 24.7243 14.7644 20.907 15.7805C17.3781 16.7304 15.8024 19.1161 13.8937 21.4797L11.7409 24.4177C11.4968 24.749 10.8087 25.5884 10.6978 25.8756C11.519 25.6326 12.1848 25.1908 12.7174 24.7711C13.2279 24.3514 16.0021 20.8833 16.6457 19.9776C16.6679 19.9555 16.7567 19.7567 16.7789 19.7567L16.8233 19.845C16.5126 20.1543 15.8246 21.3913 15.5139 21.8552C14.9812 22.6726 14.1378 24.1747 13.4942 24.8153C13.2501 25.0583 12.9616 25.3675 12.6286 25.6105C9.98757 27.4661 10.0763 26.2732 9.67685 27.6649L8.58935 31.5748C8.34522 32.4142 7.21333 36.2579 7.16895 36.7659H15.2031C15.3363 35.7056 15.07 35.1092 14.382 34.7337C13.8715 34.4686 12.9616 34.1152 12.4067 33.9605C12.6286 33.1211 13.5608 31.4864 14.0047 30.8458C14.8702 29.5867 19.531 27.4661 21.2399 26.3174C23.9697 24.4839 23.6368 22.2087 29.1409 22.8493C30.7833 23.0481 36.5759 24.0642 37.1529 24.0863C36.6425 24.1084 33.2246 23.7329 32.3812 23.6666C30.7389 23.512 26.9215 22.9818 25.4123 23.7771C25.0572 23.9538 24.2583 24.6386 24.1695 24.992C26.4555 25.0583 29.0078 25.3675 31.2715 25.5443C33.6019 25.721 35.9544 25.9198 38.2626 26.1407C40.7483 26.3616 41.6139 26.6267 42.2131 29.7192C42.6792 32.105 42.5682 34.336 42.6792 36.8101H49.9588C50.0254 35.794 49.9144 35.1976 49.0489 34.7337C48.494 34.4465 47.8282 34.2256 47.1846 34.0268C47.2068 33.6292 48.9157 27.6207 49.1598 26.6929C49.3818 25.8756 51.1795 19.6241 51.2017 19.4474L50.1142 25.8977C50.6468 25.721 51.2017 25.3234 51.5568 25.0362C51.9341 24.749 52.2892 24.3514 52.4889 23.755C53.0438 22.0319 53.7983 18.3429 54.1535 16.4653C54.3754 15.3166 54.7305 13.7482 54.7749 12.5775C53.7096 12.3786 52.9994 11.9148 52.733 10.9649C52.4445 9.97084 52.4001 7.91647 52.4667 6.70152C52.4667 7.78393 52.8218 10.6114 53.8205 11.4067C54.4864 11.9368 57.6157 12.5554 58.7254 12.6216C58.9029 12.1798 59.0583 11.8706 59.1915 11.3404C59.2802 10.9649 59.2137 11.0312 59.1693 10.8323C59.1027 10.5452 59.2359 10.3243 59.1693 9.68367C59.0361 9.86038 58.6366 10.501 58.57 10.6335C55.929 9.81621 56.1731 5.75166 59.0361 5.79584C59.5466 6.67943 59.2359 5.86211 59.7019 7.09914C59.7907 6.67943 59.7019 6.12718 59.8351 5.77375C59.9461 5.48658 59.8351 5.99464 59.9461 5.48658C60.0792 4.86806 59.9461 3.05668 59.7685 2.61488C56.4838 2.23935 57.8376 2.28353 54.5973 2.46025Z" fill="#9B9B9B"/>
<path fill-rule="evenodd" clip-rule="evenodd" d="M0 36.545C0.599236 36.6334 1.57577 36.5671 2.1972 36.5671C2.53011 36.5671 2.99617 36.5892 3.32908 36.5671C3.79516 36.545 3.68419 36.4125 3.95052 36.0811C4.61633 35.2859 5.28215 34.4465 5.90358 33.6733L7.85665 31.2434C8.14517 30.8458 8.85537 28.5926 8.94415 27.9962C8.34491 28.8798 5.48189 32.3038 4.66072 33.2978C4.39439 33.6071 4.23904 33.6954 4.06149 34.0268C2.9074 34.0489 1.99745 34.0268 1.37602 34.6895L0 36.545Z" fill="#9B9B9B"/>
</svg>
