<svg width="46" height="41" viewBox="0 0 46 41" fill="none" xmlns="http://www.w3.org/2000/svg">
<path d="M42.6877 16.5305C42.5662 16.4076 42.4446 16.4076 42.3231 16.4076H40.6213C40.135 14.9326 39.5273 13.4575 38.5549 12.1054L41.3506 9.40117L43.174 11.4908C43.2955 11.7367 43.6602 11.7367 43.9033 11.6137C44.1464 11.4908 44.2679 11.245 44.2679 10.9991L44.1464 1.16552C44.1464 1.0426 44.0248 0.796756 43.9033 0.673835C43.7817 0.550915 43.6602 0.427995 43.4171 0.550915L33.3279 1.16552C33.0848 1.16552 32.8417 1.41136 32.7201 1.6572C32.5985 1.90304 32.7201 2.14888 32.9632 2.39472L35.3944 4.1156L32.9632 6.45109C29.9243 4.48436 26.5208 3.501 22.8741 3.501C14.6083 3.501 7.67956 8.90949 5.24844 16.4076H4.03288C3.91132 16.4076 3.78978 16.4076 3.66822 16.5305C3.54667 16.6535 0.264623 18.866 0.143066 22.062C0.143066 24.0287 1.23706 25.9954 3.54662 27.7163C3.66818 27.8392 3.7898 27.8392 3.91135 27.8392H5.49157C7.92269 35.2144 14.8513 40.5 22.9956 40.5C31.1399 40.5 38.0686 35.2144 40.4997 27.8392H42.2015C42.3231 27.8392 42.4446 27.8392 42.5662 27.7163C42.6877 27.5934 45.8482 25.3808 45.8482 22.1849C45.9698 20.0952 44.8757 18.2514 42.6877 16.5305ZM23.1172 4.85312C26.6423 4.85312 30.0459 5.95941 32.8417 7.92613C33.0848 8.04905 33.4495 8.04905 33.6926 7.80321L36.9746 4.48436C37.0961 4.36144 37.2177 4.1156 37.2177 3.99268C37.2177 3.74684 37.0961 3.62392 36.9746 3.501L35.2728 2.39472L42.9308 1.90304L43.0524 9.40117L41.9584 8.04905C41.8369 7.92613 41.7153 7.80321 41.4722 7.80321C41.3506 7.80321 41.1075 7.80321 40.986 7.92613L37.3393 11.3679C37.0962 11.6137 37.0961 11.9825 37.2177 12.2283C38.0686 13.4575 38.7979 14.8097 39.2842 16.2847H34.5434C32.477 11.9825 28.2226 8.90949 23.1172 8.90949C18.1334 8.90949 13.7574 11.9825 11.6909 16.2847H6.82865C9.13822 9.76993 15.5807 4.85312 23.1172 4.85312ZM33.0848 16.4076H13.1496C15.0945 12.8429 18.8627 10.3845 23.1172 10.3845C27.4932 10.3845 31.2615 12.8429 33.0848 16.4076ZM23.1172 39.1479C15.7023 39.1479 9.38138 34.354 6.95026 27.7163H12.0556C14.122 31.7727 18.3765 34.5998 23.2387 34.5998C28.101 34.5998 32.3555 31.7727 34.4219 27.7163H39.2842C36.853 34.4769 30.5321 39.1479 23.1172 39.1479ZM13.3927 27.8392H32.8417C30.8968 31.1581 27.2501 33.3706 23.1172 33.3706C18.9843 33.3706 15.4592 31.1581 13.3927 27.8392ZM42.0799 26.4871H40.986H39.6488H34.9082H33.571H12.7849H11.4478H6.58553H5.24844H4.27601C2.45266 25.012 1.48023 23.537 1.48023 22.062C1.48023 19.8494 3.66822 18.1285 4.27601 17.7598H5.24844H6.58553H11.4478H12.7849H33.9357H35.2728H39.8919H41.229H42.3231C44.1464 19.1119 44.9973 20.5869 44.9973 22.062C44.6326 24.2745 42.6877 26.1183 42.0799 26.4871Z" fill="white"/>
<path d="M13.1497 19.7265H12.0557H10.7186H9.50303V20.464H10.4755L8.77372 23.6599L6.95038 20.464H8.28746V19.7265H6.09947H4.76231H2.93896V20.464H4.15453L4.64078 21.4474L5.97787 23.9058L6.58565 24.8892H9.50303L10.5971 22.9224L11.9341 20.464H13.1497V19.7265Z" fill="white"/>
<path d="M16.4319 19.6036C14.3654 19.6036 12.6636 20.8328 12.6636 22.3078C12.6636 23.7829 14.3654 25.0121 16.4319 25.0121C18.4983 25.0121 20.2001 23.7829 20.2001 22.3078C20.2001 20.8328 18.4983 19.6036 16.4319 19.6036ZM16.3103 24.2745C15.824 24.2745 15.3378 23.4141 15.3378 22.3078C15.3378 21.2015 15.824 20.3411 16.3103 20.3411C16.7965 20.3411 17.2828 21.2015 17.2828 22.3078C17.2828 23.4141 16.918 24.2745 16.3103 24.2745Z" fill="white"/>
<path d="M40.0133 19.6036C37.8253 19.6036 36.1235 20.8328 36.1235 22.3078C36.1235 23.7829 37.8253 25.0121 39.8917 25.0121C40.378 25.0121 40.7426 25.0121 41.2288 24.8891C42.6875 24.5204 43.66 23.537 43.66 22.3078C43.66 21.2015 42.6875 20.2182 41.2288 19.7265C40.9857 19.7265 40.4995 19.6036 40.0133 19.6036ZM40.1349 24.2745H40.0133C39.527 24.2745 39.0408 23.4141 39.0408 22.3078C39.0408 21.2015 39.527 20.3411 40.0133 20.3411C40.1348 20.3411 40.1348 20.3411 40.2564 20.3411C40.7426 20.5869 40.9858 21.3245 40.9858 22.3078C40.8642 23.2912 40.4995 24.0287 40.1349 24.2745Z" fill="white"/>
<path d="M25.4266 24.1516H24.2111V20.464H25.4266V19.7265H20.5644V20.464H21.78V24.1516H20.4429V25.0121H21.78H27.8578V22.5537H27.0069C27.0069 23.7829 25.9129 24.1516 25.4266 24.1516Z" fill="white"/>
<path d="M36.7317 19.7265H35.5162H34.3006H33.0851V20.464H33.9359L32.3557 23.6599L30.5323 20.464H31.8695V19.7265H26.521V20.464H27.7366L30.1677 24.8892H33.0851L34.4221 22.3078L35.3946 20.464H35.6377H36.7317V19.7265Z" fill="white"/>
</svg>
