<svg width="40" height="41" viewBox="0 0 40 41" fill="none" xmlns="http://www.w3.org/2000/svg">
<path d="M34.2009 6.34906C30.5597 2.7372 25.5698 0.5 20.0405 0.5C8.95482 0.5 0 9.44879 0 20.5C0 31.5512 8.95482 40.5 20.0135 40.5C25.5428 40.5 30.5327 38.2628 34.147 34.6509C37.7613 31.0391 40 26.0256 40 20.527C40 15.0283 37.8152 9.96092 34.2009 6.34906ZM20.0135 38.2089C17.559 38.2089 15.2394 37.7237 13.1086 36.8342C10.9777 35.9447 9.08968 34.624 7.47134 33.0337C5.853 31.4164 4.55833 29.5297 3.66824 27.4003C2.77815 25.2709 2.29265 22.9528 2.29265 20.5C2.29265 18.0472 2.77815 15.7291 3.66824 13.5997C4.55833 11.4704 5.87997 9.58356 7.47134 7.96631C9.06271 6.34906 10.9777 5.05526 13.1086 4.16577C15.2394 3.27628 17.559 2.79111 20.0135 2.79111C22.468 2.79111 24.7876 3.27628 26.9184 4.16577C29.0492 5.05526 30.9373 6.37601 32.5556 7.96631C34.174 9.58356 35.4686 11.4704 36.3587 13.5997C37.2488 15.7291 37.7343 18.0472 37.7343 20.5C37.7343 22.9259 37.2488 25.2709 36.3587 27.4003C35.4686 29.5297 34.147 31.4164 32.5556 33.0337C29.3459 36.2412 24.9225 38.2089 20.0135 38.2089Z" fill="#9B9B9B"/>
<path d="M26.672 12.5424C26.672 12.5424 26.754 12.4607 26.836 12.27C26.918 12.1067 27 11.8888 27 11.671C27 11.5076 26.9727 11.3442 26.8907 11.1808C26.7267 10.8812 26.508 10.6906 26.2894 10.6089C26.0981 10.5272 25.9068 10.5 25.9068 10.5H19.9759C19.8939 10.5 19.7846 10.5272 19.5932 10.5817C19.4019 10.6089 19.1833 10.6906 18.9373 10.854C18.5547 11.0719 18.336 11.4259 18.336 11.4259L10.328 22.3729C10.328 22.3729 10.246 22.4818 10.164 22.6452C10.082 22.8086 10 23.0265 10 23.2988C10 23.8162 10.3006 24.1702 10.3006 24.1974L13.0338 27.9281C13.0338 27.9281 13.4984 28.5 14.291 28.5C15.0836 28.5 15.5482 27.8464 15.5482 27.8464L26.672 12.5424ZM26.6994 11.671C26.6994 11.8616 26.6174 12.0522 26.59 12.1611C26.6447 12.025 26.6994 11.8616 26.6994 11.671Z" fill="#9B9B9B"/>
<path d="M10.8454 20.8562L16.8314 12.5153C16.8314 12.5153 17 12.2354 17 11.8155C17 11.6196 16.9719 11.3957 16.8314 11.1997C16.5222 10.528 15.7916 10.5 15.6511 10.5C15.6511 10.5 15.6511 10.5 15.623 10.5H9.72131L9.69321 10.556C9.52459 10.556 9.15925 10.584 8.76581 10.8359C8.37237 11.0598 8.14754 11.4237 8.14754 11.4237L5.28103 15.2863C5.25293 15.3142 5 15.6221 5 16.098C5 16.6018 5.39344 17.0776 5.39344 17.1056L8.14754 20.9122C8.14754 20.9122 8.6534 21.5 9.49649 21.5C10.3115 21.5 10.8454 20.8562 10.8454 20.8562Z" fill="#9B9B9B"/>
<path d="M31.8651 10.9292C31.8651 10.9292 31.7834 10.8219 31.6471 10.7146C31.4835 10.6073 31.3199 10.5 30.9928 10.5C30.3113 10.5 30.0115 10.9828 29.9842 10.9828L16.3271 29.5182C16.3271 29.5182 16.2453 29.6255 16.1636 29.7865C16.0818 29.9474 16 30.162 16 30.4571C16 30.9667 16.2999 31.3155 16.3271 31.3959L18.8895 34.8562C18.9168 34.883 19.2984 35.5 20.198 35.5C20.9613 35.5 21.3974 34.9099 21.3974 34.9099L34.7819 16.8036C34.7819 16.8036 34.8092 16.6964 34.891 16.5354C34.9727 16.3476 35 16.133 35 15.8648C35 15.382 34.891 15.1674 34.8364 15.1674L31.8651 10.9292Z" fill="#9B9B9B"/>
</svg>
