<svg width="16" height="16" viewBox="0 0 16 16" fill="none" xmlns="http://www.w3.org/2000/svg">
<g clip-path="url(#clip0_1048_849)">
<mask id="path-1-inside-1_1048_849" fill="white">
<path d="M13.369 5.11111C13.0507 2.24058 10.6164 0 7.66667 0C4.71697 0 2.28259 2.24058 1.96434 5.11111H0L1.22325 13.6882C1.35718 14.6261 2.17098 15.3333 3.11743 15.3333H12.2159C13.1617 15.3333 13.9762 14.6261 14.1101 13.6882L15.3333 5.11111H13.369ZM7.66667 1.27778C9.91099 1.27778 11.7688 2.94783 12.0801 5.11111H3.25328C3.56451 2.94783 5.42234 1.27778 7.66667 1.27778ZM5.11558 12.7778H3.84003V7.66667H5.11558V12.7778ZM8.30444 12.7778H7.02889V7.66667H8.30444V12.7778ZM11.4933 12.7778H10.2178V7.66667H11.4933V12.7778Z"/>
</mask>
<path d="M13.369 5.11111C13.0507 2.24058 10.6164 0 7.66667 0C4.71697 0 2.28259 2.24058 1.96434 5.11111H0L1.22325 13.6882C1.35718 14.6261 2.17098 15.3333 3.11743 15.3333H12.2159C13.1617 15.3333 13.9762 14.6261 14.1101 13.6882L15.3333 5.11111H13.369ZM7.66667 1.27778C9.91099 1.27778 11.7688 2.94783 12.0801 5.11111H3.25328C3.56451 2.94783 5.42234 1.27778 7.66667 1.27778ZM5.11558 12.7778H3.84003V7.66667H5.11558V12.7778ZM8.30444 12.7778H7.02889V7.66667H8.30444V12.7778ZM11.4933 12.7778H10.2178V7.66667H11.4933V12.7778Z" fill="white"/>
<path d="M13.369 5.11111L-7.83443 7.46188L-5.72987 26.4444H13.369V5.11111ZM1.96434 5.11111V26.4444H21.0632L23.1678 7.46188L1.96434 5.11111ZM0 5.11111V-16.2222H-24.5917L-21.1196 8.12315L0 5.11111ZM1.22325 13.6882L-19.8964 16.7002L-19.8958 16.704L1.22325 13.6882ZM14.1101 13.6882L35.2292 16.704L35.2297 16.7002L14.1101 13.6882ZM15.3333 5.11111L36.453 8.12315L39.9251 -16.2222H15.3333V5.11111ZM12.0801 5.11111V26.4444H36.7023L33.196 2.07314L12.0801 5.11111ZM3.25328 5.11111L-17.8626 2.07314L-21.369 26.4444H3.25328V5.11111ZM5.11558 12.7778V34.1111H26.4489V12.7778H5.11558ZM3.84003 12.7778H-17.4933V34.1111H3.84003V12.7778ZM3.84003 7.66667V-13.6667H-17.4933V7.66667H3.84003ZM5.11558 7.66667H26.4489V-13.6667H5.11558V7.66667ZM8.30444 12.7778V34.1111H29.6378V12.7778H8.30444ZM7.02889 12.7778H-14.3044V34.1111H7.02889V12.7778ZM7.02889 7.66667V-13.6667H-14.3044V7.66667H7.02889ZM8.30444 7.66667H29.6378V-13.6667H8.30444V7.66667ZM11.4933 12.7778V34.1111H32.8266V12.7778H11.4933ZM10.2178 12.7778H-11.1156V34.1111H10.2178V12.7778ZM10.2178 7.66667V-13.6667H-11.1156V7.66667H10.2178ZM11.4933 7.66667H32.8266V-13.6667H11.4933V7.66667ZM34.5724 2.76034C33.0754 -10.7426 21.6627 -21.3333 7.66667 -21.3333V21.3333C-0.429926 21.3333 -6.97389 15.2237 -7.83443 7.46188L34.5724 2.76034ZM7.66667 -21.3333C-6.32932 -21.3333 -17.742 -10.7426 -19.2391 2.76034L23.1678 7.46188C22.3072 15.2237 15.7633 21.3333 7.66667 21.3333V-21.3333ZM1.96434 -16.2222H0V26.4444H1.96434V-16.2222ZM-21.1196 8.12315L-19.8964 16.7002L22.3429 10.6762L21.1196 2.09907L-21.1196 8.12315ZM-19.8958 16.704C-18.2651 28.1237 -8.47485 36.6667 3.11743 36.6667V-6C12.8168 -6 20.9795 1.12847 22.3423 10.6723L-19.8958 16.704ZM3.11743 36.6667H12.2159V-6H3.11743V36.6667ZM12.2159 36.6667C23.8032 36.6667 33.5978 28.1281 35.2292 16.704L-7.009 10.6723C-5.64549 1.12411 2.52028 -6 12.2159 -6V36.6667ZM35.2297 16.7002L36.453 8.12315L-5.7863 2.09907L-7.00954 10.6762L35.2297 16.7002ZM15.3333 -16.2222H13.369V26.4444H15.3333V-16.2222ZM7.66667 22.6111C-0.934746 22.6111 -7.87043 16.2496 -9.03586 8.14908L33.196 2.07314C31.4081 -10.354 20.7567 -20.0556 7.66667 -20.0556V22.6111ZM12.0801 -16.2222H3.25328V26.4444H12.0801V-16.2222ZM24.3692 8.14908C23.2038 16.2496 16.2681 22.6111 7.66667 22.6111V-20.0556C-5.42339 -20.0556 -16.0747 -10.354 -17.8626 2.07314L24.3692 8.14908ZM5.11558 -8.55556H3.84003V34.1111H5.11558V-8.55556ZM25.1734 12.7778V7.66667H-17.4933V12.7778H25.1734ZM3.84003 29H5.11558V-13.6667H3.84003V29ZM-16.2178 7.66667V12.7778H26.4489V7.66667H-16.2178ZM8.30444 -8.55556H7.02889V34.1111H8.30444V-8.55556ZM28.3622 12.7778V7.66667H-14.3044V12.7778H28.3622ZM7.02889 29H8.30444V-13.6667H7.02889V29ZM-13.0289 7.66667V12.7778H29.6378V7.66667H-13.0289ZM11.4933 -8.55556H10.2178V34.1111H11.4933V-8.55556ZM31.5511 12.7778V7.66667H-11.1156V12.7778H31.5511ZM10.2178 29H11.4933V-13.6667H10.2178V29ZM-9.84003 7.66667V12.7778H32.8266V7.66667H-9.84003Z" fill="#1A202C" mask="url(#path-1-inside-1_1048_849)"/>
</g>
<defs>
<clipPath id="clip0_1048_849">
<rect width="16" height="16" fill="white"/>
</clipPath>
</defs>
</svg>
