<svg width="451" height="451" viewBox="0 0 451 451" fill="none" xmlns="http://www.w3.org/2000/svg">
<g clip-path="url(#clip0_1648_9216)">
<rect width="451" height="451" rx="50" fill="#E31E24"/>
<path d="M353.789 80.7275C309.438 89.7596 294.07 93.5342 269.67 101.757C238.125 112.138 215.207 124.54 201.457 138.56L194.852 145.435H411.082V80.4579L407.24 76.5485C401.848 71.1562 398.95 71.4258 353.789 80.7275ZM359.182 105.397C362.687 108.363 362.821 108.498 361.339 118.474C360.26 126.697 359.316 129.123 356.485 131.55C353.25 134.381 351.767 134.65 334.242 134.65C313.078 134.65 311.325 133.976 311.325 125.349C311.325 118.339 313.752 112.003 317.257 109.981C321.436 107.689 343.409 102.566 350.015 102.431C354.059 102.297 356.62 103.106 359.182 105.357V105.397Z" fill="white"/>
<path d="M180.967 152.984C175.44 155.68 161.285 170.509 162.094 172.801C162.364 173.744 164.79 174.284 167.621 174.284C170.856 174.149 172.474 174.688 172.07 175.632C171.531 176.98 145.917 217.961 144.839 219.309C144.569 219.579 123 224.567 96.8473 230.363C69.4814 236.565 46.699 242.361 43.194 244.114C37.9365 246.675 36.3188 248.562 32.4094 256.246C27.9608 265.144 25.2646 277.546 27.826 277.546C32.4697 276.026 37.0166 274.226 41.4415 272.154C60.9886 263.796 73.5256 260.83 91.5898 260.83C109.654 260.83 120.843 263.526 134.054 271.48C142.817 276.737 155.623 288.6 161.285 296.823L164.79 301.811H351.633L352.442 295.341C354.06 282.669 352.981 283.747 370.236 278.894C378.999 276.467 386.278 274.311 386.548 274.041C387.492 273.367 409.735 156.354 409.735 152.04C409.735 151.366 363.9 150.827 297.575 150.827C198.29 150.827 184.809 151.097 180.967 152.984ZM181.911 175.227C181.911 175.901 177.327 185.338 171.8 195.853C162.229 214.052 161.42 215.265 156.028 217.287C152.927 218.5 150.231 219.444 150.096 219.174C149.961 218.905 155.893 208.794 163.172 196.257C173.283 179.271 177.327 173.744 179.215 173.744C180.765 173.744 181.911 174.418 181.911 175.227ZM221.948 174.553C222.717 174.749 223.438 175.101 224.064 175.588C224.691 176.075 225.209 176.687 225.588 177.384C226.127 178.597 224.779 186.147 222.892 194.37C217.904 215.13 218.039 214.995 194.987 216.209C184.876 216.748 175.71 216.883 174.496 216.478C170.991 215.13 172.205 208.659 178.271 195.718C185.55 180.35 187.977 176.575 191.752 175.092C195.122 173.744 217.365 173.34 221.948 174.553Z" fill="white"/>
<path d="M78.1095 268.11C58.9669 270.806 30.927 281.86 27.6916 288.196C24.9955 293.453 20.412 310.843 19.3336 319.471C17.4463 335.378 23.6474 346.837 35.9149 350.207C45.2166 352.769 45.2166 352.769 46.1602 341.714C48.1823 318.662 61.2586 299.654 79.7272 292.914C87.546 290.083 104.262 290.083 112.755 292.914C132.841 299.52 145.513 317.584 145.513 339.153V347.646L243.518 347.376L341.523 346.972L345.972 329.447C348.398 319.741 350.42 310.843 350.42 309.495C350.42 307.338 345.028 307.204 255.785 307.204L161.016 307.069L156.433 300.329C147.131 286.578 129.876 274.446 114.373 270.267C102.48 267.596 90.2345 266.868 78.1095 268.11Z" fill="white"/>
<path d="M81.6134 300.463C61.9315 308.147 52.2254 331.873 60.5834 351.42C66.2453 364.632 81.3437 374.607 95.6333 374.607C109.923 374.607 125.021 364.632 130.683 351.42C144.029 320.415 113.023 288.196 81.6134 300.463ZM104.8 318.528C111.81 322.167 114.911 326.886 115.585 334.57C116.259 343.062 113.832 348.724 107.766 353.038C103.701 355.984 98.6683 357.274 93.6874 356.649C88.7064 356.023 84.1495 353.528 80.9393 349.668C75.547 343.467 74.4686 337.131 77.4343 329.312C81.6134 318.352 94.6897 313.27 104.8 318.528Z" fill="white"/>
<path d="M354.062 322.842C351.231 335.379 349.074 346.028 349.074 346.568C349.074 347.107 374.283 347.646 405.019 347.646H460.964V342.523C460.964 318.662 486.173 300.868 510.304 307.878C524.998 312.192 536.456 327.56 536.456 343.197C536.456 347.242 536.861 347.646 540.366 347.646C543.871 347.646 544.275 347.242 545.219 340.232C545.88 334.029 548.052 328.084 551.545 322.916C555.037 317.748 559.744 313.516 565.252 310.589C570.76 307.662 576.901 306.13 583.138 306.127C589.376 306.125 595.519 307.652 601.029 310.574C611.814 315.966 617.341 324.055 620.037 337.94C621.654 346.163 621.789 346.298 624.351 344.006C626.642 341.984 626.912 340.501 626.373 335.244C625.294 325.942 620.441 315.966 614.51 310.709C604.534 301.677 607.904 301.812 477.141 300.868L359.05 300.059L354.062 322.842Z" fill="white"/>
</g>
<defs>
<clipPath id="clip0_1648_9216">
<rect width="451" height="451" rx="50" fill="white"/>
</clipPath>
</defs>
</svg>
