<svg width="60" height="13" viewBox="0 0 60 13" fill="none" xmlns="http://www.w3.org/2000/svg">
<path fill-rule="evenodd" clip-rule="evenodd" d="M0 12.4536H4.85722V0.247681H0V12.4536Z" fill="#9B9B9B"/>
<path fill-rule="evenodd" clip-rule="evenodd" d="M21.001 2.49552V10.1979C21.001 11.4397 22.007 12.4457 23.2488 12.4457H31.5249V9.61629H26.5813C26.1962 9.61629 25.8896 9.30977 25.8896 8.92465V8.26445C25.8896 7.87933 26.1962 7.5728 26.5813 7.5728H30.3853V5.12062H26.5813C26.1962 5.12062 25.8896 4.81409 25.8896 4.42898V3.76877C25.8896 3.38365 26.1962 3.07713 26.5813 3.07713H31.5564V0.247681H23.241C22.007 0.247681 21.001 1.25371 21.001 2.49552Z" fill="#9B9B9B"/>
<path fill-rule="evenodd" clip-rule="evenodd" d="M32.8296 6.35457C32.8296 9.72633 35.0146 12.4536 38.3706 12.4536H43.7623V9.62416H40.2883C38.9994 9.62416 37.954 8.57097 37.954 7.282V5.41928C37.954 4.12245 38.9994 3.07713 40.2883 3.07713H43.7623V0.247681H38.3706C35.0146 0.247681 32.8296 2.98281 32.8296 6.35457Z" fill="#9B9B9B"/>
<path fill-rule="evenodd" clip-rule="evenodd" d="M54.459 0.247681H50.207C46.851 0.247681 44.666 2.98281 44.666 6.34671C44.666 9.71847 46.851 12.4457 50.207 12.4457H54.459C57.8151 12.4457 60 9.71061 60 6.34671C60 2.98281 57.8151 0.247681 54.459 0.247681ZM54.8756 7.282C54.8756 8.57883 53.8303 9.62416 52.5413 9.62416H52.1248C50.8358 9.62416 49.7905 8.57097 49.7905 7.282V5.41928C49.7905 4.12245 50.8358 3.07713 52.1248 3.07713H52.5413C53.8303 3.07713 54.8756 4.13031 54.8756 5.41928V7.282Z" fill="#9B9B9B"/>
<path fill-rule="evenodd" clip-rule="evenodd" d="M14.4776 8.54739C14.2968 9.2076 13.6995 9.27047 13.5187 8.54739L11.2394 0.247681H6.31934L9.01517 10.4101C9.55748 12.4536 11.9547 12.7523 13.2751 12.7523C14.5955 12.7523 16.5132 12.4536 17.0477 10.528L19.8064 0.247681H16.749L14.4776 8.54739Z" fill="#9B9B9B"/>
</svg>
