<svg width="24" height="24" viewBox="0 0 24 24" fill="none" xmlns="http://www.w3.org/2000/svg">
<rect width="24" height="24" fill="white"/>
<path fill-rule="evenodd" clip-rule="evenodd" d="M9.7927 0.0682994C9.42984 0.156067 8.88405 0.449074 8.58107 0.718847C8.23653 1.02556 7.90363 1.53626 7.75408 1.98741C7.63827 2.3369 7.63161 2.4035 7.62892 3.23619V4.23578C7.62892 4.23578 7.83586 4.23578 7.93668 4.23578C8.23978 4.23578 8.22322 4.23578 8.54288 4.23578C8.86232 4.23578 9.58407 4.23578 9.58407 4.23578C9.58407 4.23578 9.58407 4.13486 9.58407 3.34886C9.60994 2.49909 9.63464 2.41123 9.91714 2.16348C10.0043 2.08699 10.1521 2.00322 10.2456 1.97729C10.3541 1.94723 11.2133 1.93092 12.6202 1.93222C14.694 1.93415 14.8141 1.9386 14.6448 2.00677C13.994 2.26891 13.5369 2.82104 13.4079 3.50075C13.3786 3.65494 13.3625 6.30059 13.3625 10.9687V18.1978L11.889 18.1976C10.9997 18.1974 10.3482 18.1787 10.2456 18.1502C10.1521 18.1243 10.0043 18.0405 9.91714 17.964C9.61165 17.6961 9.60814 17.6787 9.58322 16.3104C9.5622 15.1567 9.55322 14.933 9.55322 14.933C9.55322 14.933 8.93958 14.933 8.54288 14.933C8.14619 14.933 7.62752 14.933 7.62752 14.933C7.62752 14.933 7.62613 15.1268 7.62752 16.4227V17.5569L7.75269 18.1401C7.9938 18.8593 8.51161 19.4665 9.18023 19.814C9.75468 20.1125 9.88704 20.1289 11.7316 20.1296L13.3625 20.1303V20.6634C13.3625 21.5511 13.4907 21.9607 13.9056 22.3988C14.3397 22.8573 14.7669 23.0278 15.4031 22.9964C15.797 22.9769 15.9443 22.9325 18.845 21.9591C20.5117 21.3998 21.9614 20.8918 22.0664 20.8304C22.3549 20.6615 22.7419 20.2185 22.8632 19.9184L22.9682 19.6584L22.9907 14.6027C23.0031 11.822 23.0031 7.71677 22.9907 5.4799L22.9682 1.41285L22.8433 1.14636C22.5942 0.615171 22.186 0.253181 21.6475 0.0860057C21.3689 -0.00045839 21.2168 -0.00266044 15.7086 0.000979682C10.9985 0.00412546 10.0118 0.0153604 9.7927 0.0682994ZM4.72412 4.81182V5.44953C4.72412 5.44953 4.72412 6.23421 4.72412 7.16257V8.62568H2.69122C0.708078 8.62568 0.404135 8.62568 0.404135 8.62568L0 8.62568C0 8.62568 0 9.21039 0 9.55593C0 9.96636 0 10.5581 0 10.5581C0 10.5581 0.536885 10.5581 2.71839 10.5581H4.7198L4.73321 12.1197L4.74662 13.6814V14.3697L5.64514 14.3697C5.64514 14.3697 5.97543 14.3683 6.12786 14.2945C6.26175 14.2297 6.95404 13.5672 8.37555 12.1435C10.5762 9.93963 10.5286 9.99701 10.5268 9.54694C10.5264 9.44808 10.4882 9.28629 10.442 9.18742C10.3855 9.06645 9.67585 8.32998 8.27216 6.93523C6.32551 5.00106 6.17227 4.85941 5.9752 4.81182C5.62189 4.81182 4.72412 4.81182 4.72412 4.81182Z" fill="#1A202C"/>
</svg>
