<svg width="37" height="30" viewBox="0 0 37 30" fill="none" xmlns="http://www.w3.org/2000/svg">
<path d="M29 13.7496H11.21L16.655 8.29961C16.9096 8.04434 17.0321 7.71524 16.9955 7.38471C16.959 7.05417 16.7663 6.74929 16.46 6.53711C16.1537 6.32494 15.7588 6.22286 15.3621 6.25334C14.9655 6.28381 14.5996 6.44434 14.345 6.69961L6.845 14.1996C6.79454 14.2593 6.74942 14.3219 6.71 14.3871C6.71 14.4496 6.71 14.4871 6.605 14.5496C6.53701 14.6929 6.50141 14.8455 6.5 14.9996C6.50141 15.1537 6.53701 15.3063 6.605 15.4496C6.605 15.5121 6.605 15.5496 6.71 15.6121C6.74942 15.6773 6.79454 15.74 6.845 15.7996L14.345 23.2996C14.486 23.4407 14.6626 23.5542 14.8623 23.632C15.0619 23.7097 15.2796 23.7499 15.5 23.7496C15.8505 23.7502 16.1901 23.6485 16.46 23.4621C16.6119 23.3572 16.7374 23.2283 16.8295 23.0829C16.9215 22.9374 16.9782 22.7783 16.9963 22.6146C17.0144 22.4509 16.9936 22.2858 16.935 22.1288C16.8765 21.9718 16.7813 21.8259 16.655 21.6996L11.21 16.2496H29C29.3978 16.2496 29.7794 16.1179 30.0607 15.8835C30.342 15.6491 30.5 15.3311 30.5 14.9996C30.5 14.6681 30.342 14.3501 30.0607 14.1157C29.7794 13.8813 29.3978 13.7496 29 13.7496Z" fill="#1A202C"/>
</svg>
