<svg xmlns="http://www.w3.org/2000/svg" viewBox="0 0 450.72 226.29"><g id="Слой_2" data-name="Слой 2"><g id="Слой_1-2" data-name="Слой 1"><path d="M248.35,5.73c-32.9,6.7-44.3,9.5-62.4,15.6-23.4,7.7-40.4,16.9-50.6,27.3l-4.9,5.1h160.4V5.53L288,2.63C284-1.37,281.85-1.17,248.35,5.73Zm4,18.3c2.6,2.2,2.7,2.3,1.6,9.7-.8,6.1-1.5,7.9-3.6,9.7-2.4,2.1-3.5,2.3-16.5,2.3-15.7,0-17-.5-17-6.9,0-5.2,1.8-9.9,4.4-11.4,3.1-1.7,19.4-5.5,24.3-5.6C248.55,21.73,250.45,22.33,252.35,24Z" style="fill:#e31e24"/><path d="M120.15,59.33c-4.1,2-14.6,13-14,14.7.2.7,2,1.1,4.1,1.1,2.4-.1,3.6.3,3.3,1-.4,1-19.4,31.4-20.2,32.4-.2.2-16.2,3.9-35.6,8.2-20.3,4.6-37.2,8.9-39.8,10.2-3.9,1.9-5.1,3.3-8,9-3.3,6.6-5.3,15.8-3.4,15.8a89.32,89.32,0,0,0,10.1-4c14.5-6.2,23.8-8.4,37.2-8.4s21.7,2,31.5,7.9c6.5,3.9,16,12.7,20.2,18.8l2.6,3.7h138.6l.6-4.8c1.2-9.4.4-8.6,13.2-12.2,6.5-1.8,11.9-3.4,12.1-3.6.7-.5,17.2-87.3,17.2-90.5,0-.5-34-.9-83.2-.9C133,57.73,123,57.93,120.15,59.33Zm.7,16.5c0,.5-3.4,7.5-7.5,15.3-7.1,13.5-7.7,14.4-11.7,15.9-2.3.9-4.3,1.6-4.4,1.4s4.3-7.7,9.7-17c7.5-12.6,10.5-16.7,11.9-16.7C120,74.73,120.85,75.23,120.85,75.83Zm29.7-.5a4.27,4.27,0,0,1,2.7,2.1c.4.9-.6,6.5-2,12.6-3.7,15.4-3.6,15.3-20.7,16.2-7.5.4-14.3.5-15.2.2-2.6-1-1.7-5.8,2.8-15.4,5.4-11.4,7.2-14.2,10-15.3C130.65,74.73,147.15,74.43,150.55,75.33Z" style="fill:#e31e24"/><path d="M43.85,144.73c-14.2,2-35,10.2-37.4,14.9-2,3.9-5.4,16.8-6.2,23.2-1.4,11.8,3.2,20.3,12.3,22.8,6.9,1.9,6.9,1.9,7.6-6.3,1.5-17.1,11.2-31.2,24.9-36.2,5.8-2.1,18.2-2.1,24.5,0,14.9,4.9,24.3,18.3,24.3,34.3v6.3l72.7-.2,72.7-.3,3.3-13c1.8-7.2,3.3-13.8,3.3-14.8,0-1.6-4-1.7-70.2-1.7l-70.3-.1-3.4-5c-6.9-10.2-19.7-19.2-31.2-22.3A83.82,83.82,0,0,0,43.85,144.73Z"/><path d="M46.45,168.73c-14.6,5.7-21.8,23.3-15.6,37.8,4.2,9.8,15.4,17.2,26,17.2s21.8-7.4,26-17.2C92.75,183.53,69.75,159.63,46.45,168.73Zm17.2,13.4c5.2,2.7,7.5,6.2,8,11.9.5,6.3-1.3,10.5-5.8,13.7a14.68,14.68,0,0,1-19.9-2.5c-4-4.6-4.8-9.3-2.6-15.1C46.45,182,56.15,178.23,63.65,182.13Z"/><path d="M248.55,185.33c-2.1,9.3-3.7,17.2-3.7,17.6s18.7.8,41.5.8h41.5v-3.8c0-17.7,18.7-30.9,36.6-25.7,10.9,3.2,19.4,14.6,19.4,26.2,0,3,.3,3.3,2.9,3.3s2.9-.3,3.6-5.5a28.3,28.3,0,0,1,41.4-22c8,4,12.1,10,14.1,20.3,1.2,6.1,1.3,6.2,3.2,4.5,1.7-1.5,1.9-2.6,1.5-6.5-.8-6.9-4.4-14.3-8.8-18.2-7.4-6.7-4.9-6.6-101.9-7.3l-87.6-.6Z"/><path d="M350.15,177.63c-13.1,3.3-21.6,17.1-18.4,29.8a25.08,25.08,0,0,0,12.3,15.8,24.41,24.41,0,0,0,35.2-14.6,37.4,37.4,0,0,0,1.6-6.9c0-7.7-6.8-18.3-14-22C362.45,177.53,354.65,176.53,350.15,177.63Zm11.8,12.6a13,13,0,1,1-15.4,20.7c-3.5-3.5-4.7-11-2.5-15.2C347.25,189.73,355.75,187.13,362,190.23Z"/><path d="M410.85,178.23a24.53,24.53,0,0,0-14.2,34.6,24.43,24.43,0,1,0,28.8-34.6C419.45,176.43,416.75,176.43,410.85,178.23Zm13.9,11.9c6.1,3.2,8.3,10.4,5.1,17-5.2,10.9-20.2,9.5-24.1-2.1-1.5-4.8,1.1-11.7,5.5-14.4A14.94,14.94,0,0,1,424.75,190.13Z"/></g></g></svg>