<svg width="34" height="41" viewBox="0 0 34 41" fill="none" xmlns="http://www.w3.org/2000/svg">
<path d="M23.7958 20.1116L17.3881 10.4029L20.6891 2.24756L9.03857 19.9175L16.4172 30.4029L23.7958 20.1116ZM16.6114 12.5388L22.2425 20.6942L16.6114 29.0437L10.592 20.6942L16.6114 12.5388Z" fill="#9B9B9B"/>
<path d="M12.1454 40.1117L12.3396 40.5H21.4658L21.66 40.1117L33.5047 20.6942L33.6988 20.3058L33.5047 19.9175L21.8542 0.888344L21.66 0.5H12.1454L11.9513 0.888344L0.494938 19.9175L0.300781 20.3058L0.494938 20.6942L12.1454 40.1117ZM12.728 1.85922H20.8833L32.1454 20.3058H24.961L14.6697 35.0631L16.0289 31.7621L8.06777 20.3058H1.46581L12.728 1.85922Z" fill="#9B9B9B"/>
</svg>
