<svg width="44" height="41" viewBox="0 0 44 41" fill="none" xmlns="http://www.w3.org/2000/svg">
<path d="M8.13793 4.08789C5.17277 6.84549 3.0082 10.463 2.11865 14.5253C8.5234 21.1376 13.3566 29.3214 15.9363 38.4541C17.8637 39.0471 19.88 39.3733 21.9556 39.3733C24.0905 39.3733 26.0771 39.0768 27.9748 38.4541C30.5545 29.2917 35.3284 21.1079 41.7925 14.4956C40.8733 10.4037 38.768 6.84549 35.8029 4.08789C31.3551 5.21465 26.7295 5.80768 21.9556 5.80768C17.1817 5.83733 12.5857 5.21465 8.13793 4.08789Z" fill="#9B9B9B"/>
<path d="M8.13782 4.08783L7.39653 3.25758C4.28311 6.16344 1.97029 9.95884 1.02144 14.2583L0.902832 14.8514L1.31795 15.3258C7.60409 21.8195 12.3483 29.8551 14.8687 38.7802L15.0466 39.3732L15.6397 39.5511C17.6263 40.1738 19.7909 40.5 22.0148 40.5C24.209 40.5 26.3736 40.1738 28.3899 39.5511L28.9829 39.3732L29.1608 38.7802C31.7108 29.8254 36.3958 21.8195 42.6819 15.2665L43.097 14.8217L42.9784 14.288C42.0296 9.9885 39.7761 6.22274 36.6627 3.31689L36.1289 2.87211L35.5359 3.05002C31.2068 4.11748 26.6404 4.71051 21.9258 4.71051C17.2705 4.71051 12.7338 4.08783 8.37503 2.99072L6.95176 2.66455V4.11748H8.10817L7.36688 3.28723L8.13782 4.08783L7.8413 5.15528C12.3483 6.28205 17.063 6.93438 21.9555 6.93438C26.8183 6.93438 31.5626 6.3117 36.0993 5.18494L35.8028 4.11748L35.0615 4.94772C37.8487 7.52741 39.8354 10.9373 40.7249 14.7624L41.7924 14.5252L40.9918 13.7246C34.4684 20.5148 29.5463 28.8766 26.9369 38.1872L28.0044 38.4837L27.6782 37.4162C25.8991 37.95 23.9718 38.2465 21.9851 38.2465C19.9985 38.2465 18.0711 37.9203 16.292 37.3866L15.9658 38.454L17.0333 38.1575C14.424 28.8469 9.47214 20.5148 2.94879 13.7246L2.1482 14.5252L3.21566 14.7624C4.07555 10.9077 6.12151 7.46811 8.90876 4.88842L9.29423 4.56225V4.05818H8.13782V4.08783Z" fill="#9B9B9B"/>
<path d="M4.5498 19.0618C4.5498 9.45473 12.3185 1.62671 21.9849 1.62671C31.5921 1.62671 39.4201 9.39543 39.4201 19.0618C39.4201 28.669 31.6514 36.497 21.9849 36.497C12.3482 36.4377 4.5498 28.669 4.5498 19.0618Z" fill="#9B9B9B"/>
<path d="M4.54997 19.0619H5.67673C5.67673 14.5549 7.51513 10.4926 10.4506 7.52743C13.4158 4.56227 17.4781 2.75352 21.9851 2.75352C26.4921 2.75352 30.5544 4.59192 33.5196 7.52743C36.4847 10.4926 38.2935 14.5549 38.2935 19.0619C38.2935 23.5689 36.4551 27.6312 33.5196 30.5964C30.5544 33.5615 26.4921 35.3703 21.9851 35.3703C17.4781 35.3703 13.4158 33.5319 10.4506 30.5964C7.48548 27.6312 5.67673 23.5689 5.67673 19.0619H4.54997H3.39355C3.39355 29.2917 11.7257 37.6238 21.9555 37.6238C32.1853 37.6238 40.5174 29.2917 40.5174 19.0619C40.5174 8.8321 32.1853 0.5 21.9555 0.5C11.7257 0.5 3.39355 8.8321 3.39355 19.0619H4.54997Z" fill="#9B9B9B"/>
<path d="M8.13778 4.08785L7.72266 3.67272C4.6982 6.48963 2.44468 10.1961 1.52548 14.4066L1.43652 14.7031L1.64408 14.9107C8.01918 21.4637 12.7634 29.5289 15.3431 38.5727L15.4321 38.8692L15.7286 38.9581C17.6856 39.5808 19.7612 39.907 21.9258 39.907C24.0903 39.907 26.166 39.5808 28.123 38.9878L28.4195 38.8988L28.5084 38.6023C31.0585 29.5882 35.8324 21.4637 42.1482 14.881L42.3557 14.6735L42.2668 14.3769C41.3179 10.1664 39.1534 6.51928 36.0992 3.67272L35.862 3.46516L35.5655 3.55412C31.2067 4.68088 26.5811 5.27391 21.8368 5.27391C17.0926 5.27391 12.5559 4.65123 8.13778 3.52447L7.39649 3.34656V4.08785H8.13778L8.01918 4.65123C12.5262 5.77799 17.1815 6.43032 21.9851 6.43032C26.8183 6.43032 31.5032 5.83729 36.0103 4.68088L35.8917 4.08785L35.4766 4.50297C38.3528 7.17161 40.3987 10.6705 41.2883 14.6142L41.8813 14.4956L41.4662 14.0804C34.9725 20.7817 30.1096 29.0545 27.5299 38.3058L28.123 38.4837L27.945 37.95C26.077 38.543 24.12 38.8099 22.074 38.8099C20.0281 38.8099 18.0711 38.4837 16.203 37.8907L16.0251 38.4244L16.6181 38.2465C14.0088 29.0545 9.14594 20.8113 2.65224 14.1101L2.23712 14.5252L2.83015 14.6438C3.69004 10.7002 5.82496 7.14196 8.70116 4.50297L8.90873 4.32506V4.08785H8.13778Z" fill="#DCDCDC"/>
<path d="M4.55006 19.0619H5.1431C5.1431 14.4066 7.01115 10.196 10.0653 7.17157C13.1194 4.14711 17.3003 2.24941 21.9556 2.24941C26.6109 2.24941 30.8214 4.11746 33.8458 7.17157C36.8703 10.196 38.768 14.4066 38.768 19.0619C38.768 23.7172 36.9 27.9277 33.8458 30.9521C30.8214 34.0063 26.6109 35.8743 21.9556 35.8743C17.3003 35.8743 13.0897 34.0063 10.0653 30.9521C7.01115 27.9277 5.1431 23.7172 5.1431 19.0619H4.55006H3.95703C3.95703 28.9951 12.0223 37.09 21.9852 37.09C31.9185 37.09 40.0134 29.0248 40.0134 19.0619C40.0134 9.09893 31.9481 1.03369 21.9852 1.03369C12.0223 1.03369 3.98668 9.09893 3.98668 19.0619H4.55006Z" fill="#DCDCDC"/>
<path d="M15.8768 18.4392C16.9146 18.2316 17.9524 18.5578 18.4861 19.388C16.1436 18.1426 14.0384 20.9595 11.8738 19.1508C11.4587 18.8246 11.1325 18.1426 10.9546 17.7868C10.9842 17.7572 12.8523 19.2101 15.8768 18.4392Z" fill="#9B9B9B"/>
<path d="M15.8768 18.4392L15.9065 18.7357C16.0844 18.7061 16.2327 18.7061 16.4402 18.7061C17.1815 18.7061 17.8635 19.0026 18.2786 19.5659L18.5158 19.388L18.6344 19.1508C18.1304 18.9136 17.6263 18.7654 17.1815 18.7654C16.5292 18.7654 15.9065 18.9729 15.2542 19.1508C14.6611 19.3287 14.0977 19.477 13.5344 19.477C13.0303 19.477 12.5262 19.3584 12.0221 18.884L11.8739 19.0915L12.0814 18.884C11.7553 18.5874 11.3698 17.9648 11.2512 17.6386L11.014 17.7572L10.8361 17.9944C10.8657 18.0241 12.0814 18.9433 14.157 18.9433C14.6908 18.9433 15.3135 18.8543 15.9954 18.7061L15.8768 18.4392L15.7879 18.1427C15.1652 18.3206 14.5722 18.3502 14.0681 18.3502C13.1192 18.3502 12.3483 18.1427 11.8739 17.9351C11.6367 17.8165 11.4291 17.7275 11.2808 17.6386L11.1622 17.5496L11.1326 17.52L10.2134 16.8083L10.7175 17.8758C10.8954 18.2613 11.2512 18.9136 11.7256 19.3287C12.3483 19.8625 12.971 20.0404 13.5937 20.0404C14.246 20.0404 14.8687 19.8328 15.4617 19.6549C16.0547 19.477 16.6181 19.3287 17.2112 19.3287C17.6263 19.3287 18.0117 19.4177 18.4269 19.6253L19.4943 20.2183L18.842 19.2101C18.3083 18.4688 17.4187 18.0537 16.5588 18.0537C16.3513 18.0537 16.1437 18.0537 15.9361 18.0834L15.8768 18.4392Z" fill="#DCDCDC"/>
<path d="M26.9075 14.4362C27.115 14.881 26.2848 15.7705 26.8185 16.0671C29.1906 17.3124 29.2796 19.8032 29.2796 19.8032C28.5383 18.7357 27.204 19.0619 27.204 19.0619C30.7325 22.1753 28.6272 25.4963 28.6272 25.4963C28.1825 23.7172 26.6702 23.7172 26.6702 23.7172C29.2796 27.8387 25.3063 29.8254 25.3063 29.8254C25.6917 27.3643 23.883 26.8009 23.883 26.8009C25.158 32.1382 20.7103 32.2568 20.7103 32.2568C21.0364 31.6638 21.0957 30.5963 21.0957 30.5963C21.3033 29.3213 20.6806 27.0085 20.6806 27.0085C19.5835 27.8684 19.5835 30.7742 19.5835 30.7742C15.8474 27.6015 18.6643 24.3992 18.6643 24.3992C17.6562 24.6364 16.737 25.7335 16.737 25.7335C15.7288 23.0352 18.3678 21.9084 18.3678 21.9084C17.9527 21.9381 17.5672 21.9084 17.5672 21.9084C15.4026 21.9381 15.4323 20.3369 15.4323 20.3369C16.559 20.6631 17.2114 21.0485 18.4271 20.3072C19.6428 19.5659 19.7911 19.0915 19.7911 19.0915C19.7021 18.795 19.88 18.4985 18.5161 18.1427C17.5079 17.9055 16.9742 17.1049 16.9742 17.1049C15.9067 16.1857 13.9497 17.6089 13.9497 17.6089C14.9579 12.8943 18.1009 15.0589 18.1009 15.0589C18.1899 14.6438 18.694 14.199 18.694 14.199C19.287 13.606 20.2655 13.3391 21.5109 13.3391" fill="#9B9B9B"/>
<path d="M26.6109 14.5548V14.5845C26.6109 14.6735 26.5813 14.881 26.4923 15.0293C26.4034 15.2368 26.3144 15.4444 26.3144 15.6816C26.3144 15.7706 26.3144 15.8892 26.4034 16.0078C26.433 16.1264 26.5813 16.2153 26.6406 16.245C27.7673 16.838 28.3604 17.6979 28.6272 18.4392C28.8052 18.8247 28.8645 19.1508 28.9238 19.3881C28.9534 19.5067 28.9534 19.5956 28.9534 19.6846V19.7735H29.2499L29.4871 19.5956C29.2499 19.2101 28.8941 18.9729 28.5679 18.795C28.2418 18.6764 27.9156 18.6171 27.6487 18.6171C27.3522 18.6171 27.115 18.6468 27.115 18.6468L26.6109 18.884L27.0261 19.2694C28.5679 20.6334 28.9831 22.027 28.9831 23.0945C28.9831 23.7468 28.8052 24.3102 28.6865 24.7253C28.5976 24.9329 28.5086 25.1108 28.479 25.1701L28.39 25.2887V25.3184L28.6272 25.4963L28.9238 25.4073C28.6865 24.3992 28.0935 23.8951 27.6487 23.6579C27.1447 23.4207 26.7295 23.4207 26.6999 23.4207H26.1662L26.4627 23.8654C27.0854 24.8736 27.2929 25.7038 27.3226 26.3562C27.3226 27.394 26.8185 28.1946 26.2848 28.7283C26.0476 28.9655 25.751 29.1731 25.5435 29.351C25.4545 29.4399 25.3656 29.4696 25.3063 29.5289L25.2173 29.5586L25.3359 29.7958L25.6324 29.8254C25.6621 29.5882 25.6621 29.3806 25.6621 29.1731C25.6621 28.1353 25.247 27.4533 24.8318 27.0382C24.4167 26.623 24.0016 26.5044 24.0016 26.5044L23.4975 26.3265L23.6161 26.8306C23.794 27.4829 23.8237 28.0463 23.8237 28.5504C23.8237 29.4103 23.6161 30.0033 23.3196 30.5074C22.9045 31.219 22.2521 31.5452 21.6888 31.7528C21.3923 31.8417 21.155 31.8714 20.9771 31.9307C20.8882 31.9307 20.7992 31.9307 20.7696 31.9603H20.7399V32.2568L20.9771 32.3755C21.1847 32.0493 21.2736 31.5749 21.3033 31.219C21.333 30.8336 21.3923 30.5667 21.3923 30.5667H21.0957L21.3923 30.5964C21.4219 30.3888 21.4219 30.1812 21.4219 29.944C21.4219 28.6097 20.9771 26.9196 20.9771 26.9196L20.8585 26.4748L20.4434 26.7713C20.1172 27.0678 19.9097 27.4236 19.7318 27.8388C19.287 29.0841 19.287 30.7446 19.287 30.7446H19.5835L19.7911 30.5371C18.3381 29.3213 17.9527 28.1649 17.9527 27.1568C17.9527 26.4155 18.1899 25.7928 18.4567 25.2887C18.5754 25.0515 18.694 24.8736 18.7829 24.755L18.9015 24.6364L18.9312 24.6067L19.5539 23.8951L18.6347 24.1027C18.0416 24.2213 17.5672 24.6067 17.1817 24.9329C16.7963 25.2591 16.5887 25.5259 16.559 25.5556L16.7666 25.7335L17.0631 25.6445C16.9445 25.2294 16.8556 24.9033 16.8556 24.5771C16.8556 23.7468 17.2707 23.1538 17.6858 22.798C17.8934 22.5904 18.1009 22.4718 18.2788 22.3829C18.3678 22.3532 18.3974 22.2939 18.4864 22.2939L18.516 22.2643L20.4434 21.434L18.3678 21.6712C18.1899 21.7009 18.0416 21.7009 17.923 21.7009C17.8341 21.7009 17.8044 21.7009 17.7451 21.7009H17.6562H17.6265C16.7073 21.7009 16.2922 21.4044 16.0846 21.1078C15.8771 20.8113 15.8771 20.4852 15.8771 20.4555H15.5805L15.4916 20.752C16.1143 20.9596 16.6183 21.1671 17.241 21.1671C17.6858 21.1671 18.1899 21.0485 18.7533 20.6631C19.9986 19.8625 20.2062 19.4177 20.2655 19.3288L20.2951 19.2398V19.1508C20.2951 19.1212 20.2951 19.0322 20.2655 18.9433C20.2358 18.7654 20.0876 18.5578 19.88 18.4096C19.6725 18.2316 19.3463 18.113 18.8126 17.9944C18.3678 17.8758 17.9823 17.609 17.7748 17.4014C17.6562 17.2828 17.5672 17.1938 17.4782 17.1049L17.3893 17.0159L17.3596 16.9863L17.33 16.9566C17.0038 16.6601 16.6183 16.5712 16.2032 16.5712C15.6102 16.5712 15.0765 16.7787 14.6613 16.9863C14.2462 17.1938 13.9497 17.4014 13.9497 17.4014L14.1276 17.6386L14.4241 17.6683C14.6613 16.4525 15.0468 15.8002 15.4619 15.3851C15.8771 14.9996 16.2922 14.881 16.7073 14.881C17.0928 14.881 17.4486 14.9996 17.7155 15.0886C17.8341 15.1182 17.9527 15.2072 18.0416 15.2665L18.1306 15.2961L18.4567 15.5333L18.5457 15.1182C18.5754 14.9996 18.7236 14.7921 18.8422 14.6735C18.8719 14.5845 18.9608 14.5548 19.0201 14.4955L19.0498 14.4659C19.4946 13.9618 20.4731 13.6653 21.6591 13.6653V13.0723C20.3841 13.0723 19.287 13.3688 18.6347 14.0211C18.6347 14.0211 18.516 14.1397 18.3381 14.3176C18.1602 14.4955 18.012 14.7328 17.9527 15.0293L18.2492 15.1182L18.4271 14.881C18.3974 14.881 17.6265 14.3473 16.6776 14.3473C16.1439 14.3473 15.5509 14.5252 15.0172 14.9996C14.5131 15.5037 14.0683 16.3339 13.8014 17.5793L13.6235 18.3206L14.2462 17.8758L14.2759 17.8462C14.4834 17.7276 15.4026 17.1345 16.1439 17.1345C16.4404 17.1345 16.6776 17.2235 16.8852 17.3717L17.0631 17.1642L16.8259 17.3421C16.8259 17.3717 17.4486 18.202 18.5754 18.4985C19.2277 18.6764 19.5242 18.8247 19.5835 18.9136L19.6132 19.0026C19.6132 19.0322 19.6132 19.1212 19.6428 19.2101L19.9393 19.1805L19.7021 19.0619C19.6725 19.1508 19.4056 19.5067 18.4567 20.1293C17.9527 20.4259 17.6265 20.5445 17.241 20.5445C16.7963 20.5445 16.3218 20.3666 15.6991 20.159L15.3137 20.0404V20.4259V20.4555C15.3137 20.5741 15.3137 21.0485 15.6398 21.4637C15.966 21.9084 16.5887 22.3236 17.6265 22.2939H17.7155V21.9974L17.6858 22.2939C17.6858 22.2939 17.8044 22.2939 17.9823 22.2939C18.1602 22.2939 18.3085 22.2939 18.516 22.2643L18.4864 21.9677L18.3678 21.7305C18.3678 21.7305 17.8637 21.9381 17.3596 22.3829C16.8556 22.8276 16.3515 23.5986 16.3515 24.6364C16.3515 25.0219 16.4404 25.437 16.5887 25.8818L16.7666 26.3858L17.0928 26.0004L17.1224 25.9707C17.2114 25.8818 17.4486 25.5852 17.7451 25.348C18.0713 25.1108 18.4567 24.8439 18.8126 24.755L18.7236 24.4585L18.516 24.2509C18.516 24.2806 17.4486 25.4963 17.4486 27.2161C17.4486 28.3725 17.9527 29.7661 19.4946 31.0411L19.9986 31.4563V30.8336C19.9986 30.8336 19.9986 30.8039 19.9986 30.715C19.9986 30.4184 20.0283 29.7661 20.1765 28.9952C20.2951 28.2835 20.5917 27.5422 20.9771 27.2457L20.7696 27.0382L20.4731 27.1271C20.4731 27.1271 20.5027 27.2161 20.562 27.4236C20.6806 27.9574 20.9475 29.1434 20.9475 30.033C20.9475 30.2405 20.9475 30.4184 20.9178 30.5667C20.9178 30.5667 20.9178 30.5964 20.9178 30.7446C20.9178 30.9225 20.8882 31.1597 20.8289 31.3969C20.7992 31.6342 20.7103 31.9307 20.6213 32.1086L20.3841 32.5534H20.8882C20.9178 32.5534 21.8074 32.5534 22.7266 32.0196C23.1713 31.7824 23.6458 31.3969 24.0016 30.8039C24.3278 30.2109 24.5946 29.5289 24.5946 28.5504C24.5946 28.0167 24.5057 27.394 24.3574 26.712L24.0609 26.801L23.9719 27.0975C23.9719 27.0975 24.2981 27.2161 24.6243 27.5422C24.9208 27.8684 25.247 28.3725 25.247 29.2027C25.247 29.3806 25.247 29.5882 25.2173 29.7958L25.1284 30.3295L25.6324 30.0923C25.6324 30.0923 26.2551 29.7958 26.8481 29.1731C27.4412 28.5504 28.0639 27.6312 28.0639 26.3858C28.0639 25.5556 27.8267 24.6067 27.115 23.5689L26.8778 23.7468V24.0434C26.8778 24.0434 27.204 24.0434 27.5894 24.2509C27.9749 24.4585 28.3307 24.8439 28.5383 25.6149L28.7162 26.2672L29.1017 25.7335C29.1017 25.7038 29.754 24.6957 29.8133 23.1538C29.8133 21.9084 29.3092 20.3666 27.6784 18.8543L27.4708 19.0619L27.5598 19.3584C27.5894 19.3584 27.7377 19.3288 27.9453 19.3288C28.1528 19.3288 28.39 19.3584 28.6569 19.4474C28.8941 19.5363 29.1017 19.6846 29.3092 19.9811L29.9023 20.841L29.8726 19.8032C29.8726 19.7735 29.843 19.1508 29.4871 18.2909C29.161 17.4607 28.479 16.4525 27.2336 15.8002H27.204V15.7706C27.204 15.6816 27.2336 15.5333 27.3226 15.3258C27.4115 15.1182 27.5005 14.9107 27.5005 14.6735C27.5005 14.5845 27.5005 14.4659 27.4115 14.3769L26.6109 14.5548Z" fill="#DCDCDC"/>
<path d="M20.7989 18.1131C20.5616 17.9351 20.2058 17.8758 19.939 17.9944C20.7989 18.0241 20.9471 19.2398 21.8663 19.0026C22.0442 18.9729 22.1925 18.884 22.3111 18.795C21.6588 19.0026 21.1547 18.4392 20.7989 18.1131Z" fill="#DCDCDC"/>
<path d="M19.88 15.3258V15.4444C19.88 15.7409 19.6427 15.9781 19.3462 15.9781C19.0497 15.9781 18.8125 15.7409 18.8125 15.4444V15.3555C18.9904 15.3851 19.2276 15.4444 19.5538 15.3555C19.6724 15.3258 19.791 15.3258 19.88 15.3258Z" fill="#DCDCDC"/>
<path d="M21.0361 15.1776C21.0065 15.1479 20.6507 14.8811 20.028 14.8811C19.8501 14.8811 19.7018 14.8811 19.5239 14.9107H19.4943C19.2867 14.97 19.1384 15.0293 18.9902 15.0293C18.753 15.0293 18.5751 14.9997 18.4861 14.9107L18.3971 14.8218L17.8931 14.9997V15.0886C17.8931 15.2666 17.8931 15.6224 18.071 15.9485C18.2489 16.334 18.5751 16.6898 19.1088 16.7788C19.1088 16.7788 19.1977 16.7788 19.3163 16.7788C19.4943 16.7788 19.7315 16.7491 20.028 16.6009C20.2652 16.423 20.5321 16.1858 20.6803 15.7706C20.71 15.6817 20.7693 15.652 20.7693 15.5927C20.7693 15.5927 20.8582 15.6224 20.9472 15.6817L21.0361 15.7706L21.0658 15.8003L21.4809 15.4148C21.4809 15.4148 21.392 15.3259 21.2733 15.2369C21.1547 15.1479 20.9768 15.0293 20.7693 15.0293C20.6507 15.0293 20.4728 15.059 20.3838 15.1479C20.2652 15.2369 20.1762 15.3555 20.1466 15.5334C20.028 15.8596 19.9094 15.9782 19.7315 16.0671C19.5536 16.1561 19.4349 16.1858 19.3163 16.1858H19.2274C18.9012 16.0968 18.7233 15.9485 18.6047 15.6817C18.4861 15.4445 18.4861 15.1479 18.4861 15.0293H18.1896L17.982 15.2369C18.0117 15.2666 18.3675 15.6224 19.0198 15.6224C19.2274 15.6224 19.4349 15.5927 19.6425 15.5334L19.5536 15.2369L19.5832 15.5334C19.7611 15.5038 19.8797 15.5038 19.9983 15.5038C20.2355 15.5038 20.4135 15.5334 20.5321 15.5927L20.621 15.6224L20.6507 15.5334L20.5617 15.6224L20.5914 15.5334L20.5024 15.6224L21.0361 15.1776Z" fill="#DCDCDC"/>
<path d="M25.158 17.6682L24.9504 18.2909C25.9883 19.6252 25.8696 20.7816 25.6028 21.5229C25.3063 20.0996 24.3574 19.7438 24.3278 19.7438L23.8237 19.5363L23.9423 20.07C24.1795 21.0781 24.1202 21.9084 23.7347 22.4718C23.5568 22.709 23.3493 22.9165 23.1417 23.0648C23.6458 21.7008 22.9045 20.8706 22.8452 20.8113L22.4004 20.3072L22.3708 20.9595C22.3411 21.7898 21.9853 22.2049 21.6591 22.4718C21.837 21.938 21.6888 21.4043 21.5702 21.1374L21.0661 21.434C21.0661 21.4636 21.4516 22.1753 20.7696 22.8572L20.2358 23.391L20.9771 23.3613C20.9771 23.3613 22.2225 23.2724 22.7266 22.027C22.7562 22.4125 22.6376 22.8869 22.2818 23.5392L21.8963 24.1323L22.608 24.0137C22.6376 24.0137 23.6458 23.8061 24.2685 22.8572C24.6539 22.2642 24.7725 21.6119 24.6836 20.7816C24.9208 21.1078 25.1877 21.6415 25.1877 22.5311V23.3317L25.6917 22.709C25.6917 22.6793 27.6191 20.1293 25.158 17.6682Z" fill="#DCDCDC"/>
<path d="M27.7377 8.77284C27.204 8.68389 26.522 9.09901 26.4034 9.63274C26.3144 9.92925 26.3737 10.2258 26.4923 10.4333C26.3737 10.3147 26.1958 10.2258 26.0475 10.1368C25.5138 9.95891 24.9801 10.3147 24.8022 10.8485C24.7132 11.4711 24.9208 11.9752 25.4249 12.0938C25.6324 12.1235 25.7214 12.1828 25.9289 12.1235C25.5435 12.7462 25.0987 13.0723 24.2981 13.0723C23.5568 13.0723 22.9341 12.2421 22.5487 11.6194C22.5487 11.6194 22.9341 11.827 23.1417 11.827C23.6754 11.827 24.1498 11.3822 24.1498 10.8188C24.1498 10.2851 23.7051 9.81065 23.1417 9.81065C22.9638 9.81065 22.7562 9.8403 22.6376 9.92925C22.8155 9.75134 22.9341 9.48448 22.9341 9.18796C22.9341 8.65423 22.4894 8.17981 21.926 8.17981C21.3922 8.17981 20.9178 8.62458 20.9178 9.18796C20.9178 9.48448 21.0364 9.72169 21.2143 9.92925C21.0957 9.8403 20.8882 9.81065 20.7103 9.81065C20.1765 9.81065 19.7021 10.2554 19.7021 10.8188C19.7021 11.3525 20.1469 11.827 20.7103 11.827C20.9178 11.827 21.1254 11.738 21.3033 11.6194C20.9178 12.2421 20.3544 13.0723 19.5538 13.0723C18.7533 13.0723 18.3085 12.7462 17.923 12.1235C18.1306 12.1531 18.2195 12.1531 18.4271 12.0938C18.9312 11.9159 19.1387 11.4711 19.0498 10.8485C18.8719 10.3147 18.3381 10.0182 17.8044 10.1368C17.6265 10.1665 17.4782 10.3147 17.3596 10.4333C17.4782 10.2258 17.5375 9.8996 17.4486 9.63274C17.2707 9.09901 16.648 8.68389 16.1143 8.77284L18.2492 14.1398H25.4545L27.7377 8.77284Z" fill="#DCDCDC"/>
<path d="M24.3276 15.2368C24.3276 15.2368 25.7806 13.3984 27.9155 13.6653C27.9155 13.6653 27.2928 16.3636 24.9207 16.8676" fill="#9B9B9B"/>
<path d="M24.565 15.3852C24.654 15.2962 24.9801 14.9404 25.4842 14.5549C26.018 14.2287 26.6999 13.9026 27.5302 13.9026C27.6488 13.9026 27.7674 13.9026 27.9157 13.9026L27.9453 13.6061L27.6488 13.5171V13.5468C27.6191 13.6654 27.4412 14.3474 27.0261 14.97C26.611 15.6224 25.9586 16.2451 24.8912 16.4823L25.0098 17.0753C26.2848 16.8381 27.0854 15.9485 27.5895 15.1479C28.0343 14.3474 28.2122 13.6357 28.2122 13.6357L28.3011 13.3095L27.975 13.2799C27.8564 13.2799 27.6784 13.2502 27.5598 13.2502C26.522 13.2502 25.6325 13.6654 25.0691 14.1101C24.4761 14.5253 24.1499 14.9404 24.1499 14.97L24.565 15.3852Z" fill="#DCDCDC"/>
<path d="M25.0391 15.4741C25.0391 15.4741 25.8693 14.6735 26.8775 14.4659C26.8775 14.4659 26.3734 15.6224 25.2466 15.8892" fill="#DCDCDC"/>
</svg>
