<svg width="14" height="8" viewBox="0 0 14 8" fill="none" xmlns="http://www.w3.org/2000/svg">
<mask id="path-1-inside-1_1396_6068" fill="white">
<path d="M6.99997 7.50003C6.73736 7.50049 6.47725 7.44904 6.23459 7.34865C5.99192 7.24825 5.7715 7.10089 5.58597 6.91503L0.292969 1.62103L1.70697 0.207031L6.99997 5.50003L12.293 0.207031L13.707 1.62103L8.41397 6.91403C8.22853 7.10007 8.00813 7.24762 7.76547 7.34819C7.5228 7.44875 7.26265 7.50036 6.99997 7.50003Z"/>
</mask>
<path d="M6.99997 7.50003C6.73736 7.50049 6.47725 7.44904 6.23459 7.34865C5.99192 7.24825 5.7715 7.10089 5.58597 6.91503L0.292969 1.62103L1.70697 0.207031L6.99997 5.50003L12.293 0.207031L13.707 1.62103L8.41397 6.91403C8.22853 7.10007 8.00813 7.24762 7.76547 7.34819C7.5228 7.44875 7.26265 7.50036 6.99997 7.50003Z" fill="white"/>
<path d="M6.99997 7.50003L7.02646 -13.8333L6.99464 -13.8333L6.96282 -13.8333L6.99997 7.50003ZM5.58597 6.91503L20.6845 -8.15635L20.6784 -8.16243L20.6723 -8.16849L5.58597 6.91503ZM0.292969 1.62103L-14.792 -13.4639L-29.8755 1.61961L-14.7934 16.7046L0.292969 1.62103ZM1.70697 0.207031L16.7919 -14.8779L1.70696 -29.9629L-13.378 -14.8779L1.70697 0.207031ZM6.99997 5.50003L-8.08498 20.585L6.99997 35.6699L22.0849 20.585L6.99997 5.50003ZM12.293 0.207031L27.3779 -14.8779L12.293 -29.9629L-2.79198 -14.8779L12.293 0.207031ZM13.707 1.62103L28.7919 16.706L43.8769 1.62103L28.7919 -13.4639L13.707 1.62103ZM8.41397 6.91403L-6.67097 -8.17092L-6.68309 -8.1588L-6.69518 -8.14667L8.41397 6.91403ZM6.96282 -13.8333C9.51119 -13.8377 12.0353 -13.3385 14.3902 -12.3642L-1.92102 27.0615C0.919155 28.2366 3.96353 28.8387 7.03712 28.8333L6.96282 -13.8333ZM14.3902 -12.3642C16.7451 -11.39 18.8841 -9.95994 20.6845 -8.15635L-9.51252 21.9864C-7.34113 24.1617 -4.76121 25.8865 -1.92102 27.0615L14.3902 -12.3642ZM20.6723 -8.16849L15.3793 -13.4625L-14.7934 16.7046L-9.5004 21.9986L20.6723 -8.16849ZM15.3779 16.706L16.7919 15.292L-13.378 -14.8779L-14.792 -13.4639L15.3779 16.706ZM-13.378 15.292L-8.08498 20.585L22.0849 -9.58491L16.7919 -14.8779L-13.378 15.292ZM22.0849 20.585L27.3779 15.292L-2.79198 -14.8779L-8.08498 -9.58491L22.0849 20.585ZM-2.79197 15.292L-1.37797 16.706L28.7919 -13.4639L27.3779 -14.8779L-2.79197 15.292ZM-1.37797 -13.4639L-6.67097 -8.17092L23.4989 21.999L28.7919 16.706L-1.37797 -13.4639ZM-6.69518 -8.14667C-4.89563 -9.95202 -2.75692 -11.3838 -0.402038 -12.3598L15.933 27.0561C18.7732 25.8791 21.3527 24.1522 23.5231 21.9747L-6.69518 -8.14667ZM-0.402038 -12.3598C1.95281 -13.3357 4.47736 -13.8365 7.02646 -13.8333L6.97348 28.8333C10.0479 28.8372 13.0928 28.2332 15.933 27.0561L-0.402038 -12.3598Z" fill="#9B9B9B" mask="url(#path-1-inside-1_1396_6068)"/>
</svg>
