<svg width="40" height="35" viewBox="0 0 40 35" fill="none" xmlns="http://www.w3.org/2000/svg">
<path d="M13.8438 0.6586C13.7885 0.747814 10.6947 6.00641 6.96718 12.3455C3.23961 18.6845 0.145883 23.9382 0.0955786 24.0224L0 24.181L0.33201 24.419C3.06355 26.3321 5.11597 29.4297 5.81017 32.6662C5.91078 33.1469 6.08685 34.272 6.08685 34.4554C6.08685 34.4802 11.2632 34.5 20.0162 34.5C32.6728 34.5 33.9455 34.495 33.9757 34.4207C33.9908 34.3761 34.0059 34.272 34.0059 34.1878C34.0059 33.9201 34.2021 32.8198 34.358 32.2201C35.1327 29.2117 36.9638 26.4758 39.4488 24.6172C39.9921 24.2157 40.0374 24.1711 39.982 24.072C39.9116 23.9431 26.1483 0.534695 26.1231 0.504955C26.1131 0.490086 25.9873 0.529739 25.8414 0.59417C24.4128 1.20379 23.1351 1.55568 21.6561 1.74402C20.9015 1.84315 18.9799 1.82828 18.2354 1.71924C16.8772 1.52595 15.5542 1.1691 14.5129 0.718075C14.2362 0.599125 13.9947 0.5 13.9796 0.5C13.9595 0.5 13.8991 0.574345 13.8438 0.6586ZM15.1215 2.09096C16.8369 2.6758 18.5523 2.91866 20.5192 2.86414C22.1088 2.81953 23.4067 2.5965 24.8605 2.11574L25.6503 1.85306L32.1144 12.8461C35.671 18.8927 38.5836 23.8589 38.5836 23.8837C38.5836 23.9035 38.4629 24.0125 38.322 24.1166C37.8944 24.4338 36.6217 25.7076 36.169 26.2726C34.6246 28.1907 33.4827 30.6391 33.1004 32.8644C33.0702 33.0429 33.035 33.2461 33.0199 33.3204L32.9897 33.4592H20.0262H7.05773L6.97221 32.9636C6.55468 30.6143 5.51841 28.3394 3.96903 26.3717C3.52635 25.8017 2.35928 24.6271 1.84115 24.2157C1.6349 24.0522 1.46889 23.8936 1.47392 23.8638C1.47895 23.8341 4.39159 18.8679 7.94812 12.8262C12.883 4.43528 14.4324 1.84811 14.4877 1.87289C14.528 1.88776 14.8147 1.98688 15.1215 2.09096Z" fill="#9B9B9B"/>
<path d="M14.7493 2.89388C14.7141 2.93849 8.92408 12.7717 2.63098 23.4822L2.51025 23.6854L3.22458 24.3743C4.0546 25.1723 4.62807 25.8265 5.17136 26.6047C5.38264 26.912 5.57883 27.1598 5.59895 27.1598C5.6241 27.1647 7.28415 26.2329 9.29634 25.093C11.3085 23.9531 13.0893 22.942 13.2553 22.8528C14.8298 21.9854 16.3239 20.6175 17.34 19.1108C18.3964 17.5545 19.0152 15.9239 19.322 13.9067C19.3623 13.6292 19.3874 12.0481 19.4025 8.61341C19.4226 3.91487 19.4226 3.72158 19.3321 3.72158C19.0906 3.72158 18.0644 3.60758 17.506 3.52333C16.8169 3.41429 15.7202 3.15161 15.1568 2.95831C14.8852 2.8691 14.7846 2.85423 14.7493 2.89388Z" fill="#9B9B9B"/>
<path d="M25.0271 2.9087C24.2675 3.18625 22.693 3.52823 21.7573 3.6224C21.4555 3.65214 21.0832 3.68683 20.9424 3.7017L20.6758 3.72648V8.52415C20.6758 12.3752 20.6909 13.4259 20.7462 13.8819C21.0883 16.5979 22.2805 18.9918 24.2424 20.9198C25.329 21.9804 25.6559 22.1935 30.2839 24.8204C32.5577 26.109 34.4341 27.1647 34.4542 27.1647C34.4743 27.1647 34.6252 26.9714 34.7912 26.7335C35.3245 25.9504 35.8678 25.3209 36.7129 24.4932C37.3668 23.8489 37.5328 23.6606 37.4926 23.6011C37.4674 23.5565 34.7107 18.8679 31.3655 13.1731C28.0202 7.48333 25.2686 2.8294 25.2535 2.83435C25.2384 2.83435 25.1378 2.86905 25.0271 2.9087Z" fill="#9B9B9B"/>
<path d="M18.7632 22.3422C17.8828 22.4265 16.585 22.7288 15.7348 23.046C14.9803 23.3236 14.4621 23.5714 13.5566 24.0868C13.114 24.3396 11.2929 25.3755 9.50713 26.3865C7.72132 27.3927 6.25242 28.2303 6.24236 28.2402C6.2323 28.2451 6.33794 28.493 6.47879 28.7854C6.99693 29.8658 7.36918 30.9215 7.62574 32.0119L7.76659 32.6166L20.0359 32.6067L32.3102 32.5918L32.4259 32.0714C32.6774 30.9612 33.1402 29.6577 33.608 28.7408C33.7187 28.5277 33.8042 28.3294 33.8042 28.2947C33.8042 28.2402 32.119 27.2688 26.7515 24.2355C25.4688 23.507 24.8098 23.1997 23.8892 22.8973C22.5813 22.4661 21.4947 22.3026 19.9805 22.3175C19.4071 22.3175 18.8587 22.3323 18.7632 22.3422Z" fill="#9B9B9B"/>
</svg>
