<?xml version="1.0" encoding="utf-8"?><svg viewBox="0 0 59 59" xmlns="http://www.w3.org/2000/svg" xmlns:xlink="http://www.w3.org/1999/xlink"><style>:root>svg{display:none}:root>svg:target{display:block}</style><svg viewBox="0 0 16 16" id="clear-form" xmlns="http://www.w3.org/2000/svg"><g clip-path="url(#aclip0_438_1281)"><mask id="aa"><path d="M15.333 1.349L13.985 0 7.667 6.318 1.349 0 0 1.349l6.318 6.318L0 13.985l1.349 1.348 6.318-6.318 6.318 6.318 1.348-1.348-6.318-6.318 6.318-6.318z"/></mask><path d="M15.333 1.349L13.985 0 7.667 6.318 1.349 0 0 1.349l6.318 6.318L0 13.985l1.349 1.348 6.318-6.318 6.318 6.318 1.348-1.348-6.318-6.318 6.318-6.318z"/><path d="M15.333 1.349l15.085 15.086L45.504 1.35 30.418-13.736 15.333 1.349zM13.985 0l15.084-15.085-15.085-15.086-15.085 15.087L13.984 0zM7.667 6.318L-7.42 21.403 7.667 36.49l15.085-15.087L7.667 6.318zM1.349 0l15.086-15.084L1.35-30.171l-15.086 15.086L1.349 0zM0 1.349l-15.085-15.085L-30.17 1.35l15.087 15.085L0 1.349zm6.318 6.318l15.085 15.085L36.49 7.667 21.403-7.42 6.318 7.667zM0 13.985L-15.084-1.101l-15.087 15.085 15.086 15.085L0 13.985zm1.349 1.348l-15.085 15.085L1.35 45.504l15.085-15.086L1.349 15.332zm6.318-6.318L22.752-6.07 7.667-21.157-7.42-6.069 7.667 9.015zm6.318 6.318L-1.101 30.418l15.085 15.086 15.085-15.086-15.084-15.085zm1.348-1.348l15.085 15.084 15.086-15.085L30.418-1.101 15.332 13.984zM9.015 7.667L-6.07-7.42-21.157 7.667l15.088 15.085L9.015 7.667zm21.403-21.403l-1.349-1.349-30.17 30.17 1.35 1.349 30.17-30.17zm-31.52-1.348l-6.317 6.318 30.171 30.169 6.318-6.319L-1.1-15.084zm23.854 6.318l-6.317-6.318-30.172 30.168 6.318 6.319L22.752-8.766zm-36.488-6.319l-1.349 1.349 30.17 30.17 1.349-1.35-30.17-30.169zm-1.348 31.52l6.318 6.317L21.403-7.419l-6.319-6.318-30.168 30.172zM-8.766-7.42l-6.318 6.318L15.084 29.07l6.319-6.318L-8.766-7.419zm-6.319 36.488l1.349 1.35L16.434.248l-1.349-1.35-30.17 30.17zm31.52 1.349l6.317-6.319L-7.419-6.069-13.737.249l30.172 30.168zM-7.42 24.099l6.318 6.319L29.07.248l-6.318-6.318-30.171 30.168zm36.488 6.32l1.35-1.35L.248-1.1-1.102.25l30.17 30.17zm1.349-31.52L24.099-7.42-6.069 22.752.249 29.07 30.417-1.1zm-6.319 23.853l6.319-6.317L.248-13.737l-6.318 6.318 30.168 30.171z" mask="url(#aa)"/></g><defs><clipPath id="aclip0_438_1281"><path d="M0 0h16v16H0z"/></clipPath></defs></svg><svg viewBox="0 0 40 40" id="door" xmlns="http://www.w3.org/2000/svg"><path d="M8 8h24v24H8z"/><path fill-rule="evenodd" clip-rule="evenodd" d="M17.793 8.068c-.363.088-.909.381-1.212.65a3.2 3.2 0 00-.827 1.27c-.116.349-.122.415-.125 1.248v1H17.584v-.887c.026-.85.05-.938.333-1.185.087-.077.235-.16.329-.187.108-.03.967-.046 2.374-.045 2.074.002 2.194.007 2.025.075a2.002 2.002 0 00-1.237 1.494c-.03.154-.046 2.8-.046 7.468v7.229H19.89c-.89 0-1.54-.02-1.643-.048a1.016 1.016 0 01-.329-.186c-.305-.268-.309-.285-.334-1.654a92.825 92.825 0 00-.03-1.377h-1.925s-.002.194 0 1.49v1.134l.125.583c.24.72.759 1.326 1.427 1.674.575.299.707.315 2.552.316h1.63v.533c0 .888.129 1.298.544 1.736.434.458.86.629 1.497.597.394-.02.541-.063 3.442-1.037 1.667-.56 3.116-1.067 3.221-1.129.289-.168.676-.611.797-.912l.105-.26.023-5.055c.012-2.781.012-6.886 0-9.123l-.023-4.067-.125-.267c-.249-.53-.657-.893-1.195-1.06-.28-.086-.431-.089-5.94-.085-4.71.003-5.696.014-5.915.067zm-5.069 4.744v3.814H8v1.932h4.72l.013 1.562.014 1.561v.689h.898s.33-.002.483-.076c.134-.064.826-.727 2.248-2.15 2.2-2.204 2.153-2.147 2.15-2.597 0-.099-.038-.26-.084-.36-.056-.12-.766-.857-2.17-2.252-1.946-1.934-2.1-2.076-2.297-2.123h-1.25z"/></svg><svg viewBox="0 0 59 59" id="news_icon" xmlns="http://www.w3.org/2000/svg"><path d="M0 0h59v59H0zM8 14h23M8 25h41.5M8 34h41.5M8 43h41.5"/></svg></svg>