<svg width="40" height="41" viewBox="0 0 40 41" fill="none" xmlns="http://www.w3.org/2000/svg">
<path d="M19.9288 0.5C8.82562 0.5 0 9.42087 0 20.5C0 31.5791 8.96797 40.5 19.9288 40.5C31.032 40.5 40 31.5791 40 20.5C40 9.56475 31.032 0.5 19.9288 0.5ZM19.9288 39.7806C12.3843 39.7806 6.54804 35.8957 3.70107 30.4281L4.12811 30.2842C4.83986 31.4353 5.8363 32.5863 7.11744 34.0252C8.68327 35.7518 13.6655 39.205 19.9288 39.205C26.6192 39.205 32.4555 35.7518 35.7295 30.4281C36.0142 30.4281 36.0142 30.2842 36.0142 29.9964C37.5801 27.2626 38.5765 23.9532 38.5765 20.6439C38.5765 18.6295 38.2918 16.9029 37.8648 15.464C37.5801 14.313 37.0107 13.1619 36.726 12.7302C36.726 12.5863 36.726 12.5863 36.5836 12.4424C36.726 12.4424 36.726 12.5863 36.726 12.7302C37.0107 13.3058 37.7224 14.6007 38.0071 15.464C38.4342 16.6151 39.1459 18.1978 39.1459 20.7878C39.1459 31.0036 30.605 39.7806 19.9288 39.7806ZM3.98576 29.9964L17.9359 19.7806L16.7972 19.0612L4.27046 29.5648C2.84698 26.9748 1.85053 23.6655 1.85053 20.5C1.85053 10.5719 9.67972 2.51439 19.6441 2.51439L17.0819 18.6295L18.2206 19.3489L19.7865 2.65827C19.7865 2.51439 19.9288 2.51439 19.9288 2.65827L20.0712 20.2122L22.9181 18.4856L20.2135 2.51439C29.8932 2.80216 38.0071 10.7158 38.0071 20.5C38.0071 23.6655 37.0107 26.9748 35.5872 29.5648L23.0605 19.0612L21.9217 19.7806L35.3025 29.5648C35.5872 29.8525 35.5872 29.8525 35.1601 29.7086L20.0712 20.9317V24.241L35.1601 29.9964C32.0285 35.1763 26.3345 38.4856 19.7865 38.4856C13.2384 38.4856 7.68683 35.1763 4.41281 29.9964L19.5018 24.0971V20.7878L3.84342 29.9964C3.70107 30.2842 3.55872 30.1403 3.98576 29.9964ZM3.55872 30.1403C2.84698 28.7014 2.13523 26.8309 1.85053 25.2482C1.85053 25.1043 1.85053 25.1043 1.85053 24.9604C1.85053 24.9604 1.99288 25.1043 1.99288 25.2482C2.41993 26.6871 2.84697 27.982 3.84342 29.8525L3.55872 30.1403ZM39.1459 17.1906C39.1459 17.1906 39.0036 17.0468 39.0036 16.9029C37.5801 12.2986 36.2989 10.5719 33.879 7.83813C30.7473 4.38489 25.6228 1.65108 20.0712 1.65108C9.53737 1.65108 0.996441 10.2842 0.996441 20.9317C0.996441 24.0971 1.70818 26.8309 2.27758 28.1259C2.98932 29.7086 3.98577 31.8669 4.12811 32.0108C4.12811 32.1547 4.12811 32.1547 4.12811 32.2986C3.98577 32.2986 3.98576 32.1547 3.98576 32.1547C3.70107 31.723 2.41993 29.277 1.99288 28.2698C1.13879 25.9676 0.427046 23.5216 0.427046 20.9317C0.427046 9.85252 9.25267 1.07554 20.0712 1.07554C29.7509 1.07554 37.5801 7.83813 39.1459 16.9029C39.1459 17.0468 39.1459 17.0468 39.1459 17.1906Z" fill="#9B9B9B"/>
</svg>
